<svg width="16" height="16" viewBox="0 0 16 16" fill="none" xmlns="http://www.w3.org/2000/svg">
<g clip-path="url(#clip0_209_666)">
<path d="M15.9435 3V12.0238C15.9435 12.4506 15.9615 12.8721 16.0002 13.2884H13.9451C13.9078 13.0607 13.8884 12.8343 13.8884 12.6067C13.7197 12.8526 13.4684 13.0542 13.136 13.2103C12.8023 13.3678 12.4299 13.4445 12.0177 13.4445C11.023 13.4445 10.1971 13.0959 9.54002 12.3998C8.88421 11.7038 8.55566 10.8152 8.55566 9.73534C8.55566 8.6555 8.8739 7.79553 9.51296 7.09949C10.1507 6.40215 10.9624 6.05347 11.9468 6.05347C12.9311 6.05347 13.5328 6.29546 13.833 6.77814V3H15.9435ZM11.1647 8.45774C10.8607 8.76088 10.7073 9.19152 10.7073 9.75095C10.7073 10.3104 10.8594 10.7449 11.1647 11.052C11.4701 11.359 11.8424 11.5138 12.2831 11.5138C12.7237 11.5138 13.0974 11.3603 13.4014 11.052C13.7055 10.7436 13.8601 10.3104 13.8601 9.75095C13.8601 9.19152 13.7068 8.76088 13.4014 8.45774C13.0961 8.15461 12.7237 8.00369 12.2831 8.00369C11.8424 8.00369 11.4688 8.15461 11.1647 8.45774Z" fill="url(#paint0_linear_209_666)"/>
<path d="M11.778 13.4445H9.90592C9.18837 13.4445 8.54322 13.0009 8.28335 12.3271L5.90832 6.17147C5.11837 4.12133 2.65672 6.25343 2.3335 7.14321L3.32126 4.77176C3.7673 3.69856 4.81195 3 5.96909 3C7.17405 3 8.25232 3.75709 8.66604 4.89664L11.7767 13.4445H11.778Z" fill="url(#paint1_linear_209_666)"/>
<path d="M5.88893 6.19134L3.5056 12.3304C3.24482 13.0022 2.59741 13.4445 1.87735 13.4445H0L2.3016 7.16284C2.62595 6.27565 5.09622 4.14975 5.88893 6.19264V6.19134Z" fill="url(#paint2_linear_209_666)"/>
</g>
<defs>
<linearGradient id="paint0_linear_209_666" x1="12.2795" y1="3.74043" x2="12.2795" y2="8.59007" gradientUnits="userSpaceOnUse">
<stop stop-color="#C661FE"/>
<stop offset="1" stop-color="#8E70F9"/>
</linearGradient>
<linearGradient id="paint1_linear_209_666" x1="8.51219" y1="12.6965" x2="4.8825" y2="4.7404" gradientUnits="userSpaceOnUse">
<stop stop-color="#9780FF"/>
<stop offset="1" stop-color="#2EC7FF"/>
</linearGradient>
<linearGradient id="paint2_linear_209_666" x1="3.9052" y1="7.16414" x2="2.1156" y2="12.1128" gradientUnits="userSpaceOnUse">
<stop stop-color="#0066FF"/>
<stop offset="1" stop-color="#0CDBBA"/>
</linearGradient>
<clipPath id="clip0_209_666">
<rect width="16" height="16" fill="white"/>
</clipPath>
</defs>
</svg>
