<svg width="316" height="44" viewBox="0 0 316 44" fill="none" xmlns="http://www.w3.org/2000/svg">
<path d="M8.802 11.21H3.33L2.322 14H0.594L5.13 1.526H7.02L11.538 14H9.81L8.802 11.21ZM8.334 9.878L6.066 3.542L3.798 9.878H8.334ZM22.0829 4.136V14H20.4449V12.542C20.1329 13.046 19.6949 13.442 19.1309 13.73C18.5789 14.006 17.9669 14.144 17.2949 14.144C16.5269 14.144 15.8369 13.988 15.2249 13.676C14.6129 13.352 14.1269 12.872 13.7669 12.236C13.4189 11.6 13.2449 10.826 13.2449 9.914V4.136H14.8649V9.698C14.8649 10.67 15.1109 11.42 15.6029 11.948C16.0949 12.464 16.7669 12.722 17.6189 12.722C18.4949 12.722 19.1849 12.452 19.6889 11.912C20.1929 11.372 20.4449 10.586 20.4449 9.554V4.136H22.0829ZM26.3066 5.738C26.5946 5.174 27.0026 4.736 27.5306 4.424C28.0706 4.112 28.7246 3.956 29.4926 3.956V5.648H29.0606C27.2246 5.648 26.3066 6.644 26.3066 8.636V14H24.6686V4.136H26.3066V5.738ZM35.5054 14.162C34.5814 14.162 33.7414 13.952 32.9854 13.532C32.2414 13.112 31.6534 12.518 31.2214 11.75C30.8014 10.97 30.5914 10.07 30.5914 9.05C30.5914 8.042 30.8074 7.154 31.2394 6.386C31.6834 5.606 32.2834 5.012 33.0394 4.604C33.7954 4.184 34.6414 3.974 35.5774 3.974C36.5134 3.974 37.3594 4.184 38.1154 4.604C38.8714 5.012 39.4654 5.6 39.8974 6.368C40.3414 7.136 40.5634 8.03 40.5634 9.05C40.5634 10.07 40.3354 10.97 39.8794 11.75C39.4354 12.518 38.8294 13.112 38.0614 13.532C37.2934 13.952 36.4414 14.162 35.5054 14.162ZM35.5054 12.722C36.0934 12.722 36.6454 12.584 37.1614 12.308C37.6774 12.032 38.0914 11.618 38.4034 11.066C38.7274 10.514 38.8894 9.842 38.8894 9.05C38.8894 8.258 38.7334 7.586 38.4214 7.034C38.1094 6.482 37.7014 6.074 37.1974 5.81C36.6934 5.534 36.1474 5.396 35.5594 5.396C34.9594 5.396 34.4074 5.534 33.9034 5.81C33.4114 6.074 33.0154 6.482 32.7154 7.034C32.4154 7.586 32.2654 8.258 32.2654 9.05C32.2654 9.854 32.4094 10.532 32.6974 11.084C32.9974 11.636 33.3934 12.05 33.8854 12.326C34.3774 12.59 34.9174 12.722 35.5054 12.722ZM44.1751 5.738C44.4631 5.174 44.8711 4.736 45.3991 4.424C45.9391 4.112 46.5931 3.956 47.3611 3.956V5.648H46.9291C45.0931 5.648 44.1751 6.644 44.1751 8.636V14H42.5371V4.136H44.1751V5.738ZM48.4599 9.032C48.4599 8.024 48.6639 7.142 49.0719 6.386C49.4799 5.618 50.0379 5.024 50.7459 4.604C51.4659 4.184 52.2639 3.974 53.1399 3.974C54.0039 3.974 54.7539 4.16 55.3899 4.532C56.0259 4.904 56.4999 5.372 56.8119 5.936V4.136H58.4679V14H56.8119V12.164C56.4879 12.74 56.0019 13.22 55.3539 13.604C54.7179 13.976 53.9739 14.162 53.1219 14.162C52.2459 14.162 51.4539 13.946 50.7459 13.514C50.0379 13.082 49.4799 12.476 49.0719 11.696C48.6639 10.916 48.4599 10.028 48.4599 9.032ZM56.8119 9.05C56.8119 8.306 56.6619 7.658 56.3619 7.106C56.0619 6.554 55.6539 6.134 55.1379 5.846C54.6339 5.546 54.0759 5.396 53.4639 5.396C52.8519 5.396 52.2939 5.54 51.7899 5.828C51.2859 6.116 50.8839 6.536 50.5839 7.088C50.2839 7.64 50.1339 8.288 50.1339 9.032C50.1339 9.788 50.2839 10.448 50.5839 11.012C50.8839 11.564 51.2859 11.99 51.7899 12.29C52.2939 12.578 52.8519 12.722 53.4639 12.722C54.0759 12.722 54.6339 12.578 55.1379 12.29C55.6539 11.99 56.0619 11.564 56.3619 11.012C56.6619 10.448 56.8119 9.794 56.8119 9.05ZM73.3968 1.454V2.786H69.9768V14H68.3388V2.786H64.9008V1.454H73.3968ZM79.5351 14.162C78.6111 14.162 77.7711 13.952 77.0151 13.532C76.2711 13.112 75.6831 12.518 75.2511 11.75C74.8311 10.97 74.6211 10.07 74.6211 9.05C74.6211 8.042 74.8371 7.154 75.2691 6.386C75.7131 5.606 76.3131 5.012 77.0691 4.604C77.8251 4.184 78.6711 3.974 79.6071 3.974C80.5431 3.974 81.3891 4.184 82.1451 4.604C82.9011 5.012 83.4951 5.6 83.9271 6.368C84.3711 7.136 84.5931 8.03 84.5931 9.05C84.5931 10.07 84.3651 10.97 83.9091 11.75C83.4651 12.518 82.8591 13.112 82.0911 13.532C81.3231 13.952 80.4711 14.162 79.5351 14.162ZM79.5351 12.722C80.1231 12.722 80.6751 12.584 81.1911 12.308C81.7071 12.032 82.1211 11.618 82.4331 11.066C82.7571 10.514 82.9191 9.842 82.9191 9.05C82.9191 8.258 82.7631 7.586 82.4511 7.034C82.1391 6.482 81.7311 6.074 81.2271 5.81C80.7231 5.534 80.1771 5.396 79.5891 5.396C78.9891 5.396 78.4371 5.534 77.9331 5.81C77.4411 6.074 77.0451 6.482 76.7451 7.034C76.4451 7.586 76.2951 8.258 76.2951 9.05C76.2951 9.854 76.4391 10.532 76.7271 11.084C77.0271 11.636 77.4231 12.05 77.9151 12.326C78.4071 12.59 78.9471 12.722 79.5351 12.722ZM99.7068 4.136L96.6288 14H94.9368L92.5608 6.17L90.1848 14H88.4928L85.3968 4.136H87.0708L89.3388 12.416L91.7868 4.136H93.4608L95.8548 12.434L98.0868 4.136H99.7068ZM110.152 8.69C110.152 9.002 110.134 9.332 110.098 9.68H102.214C102.274 10.652 102.604 11.414 103.204 11.966C103.816 12.506 104.554 12.776 105.418 12.776C106.126 12.776 106.714 12.614 107.182 12.29C107.662 11.954 107.998 11.51 108.19 10.958H109.954C109.69 11.906 109.162 12.68 108.37 13.28C107.578 13.868 106.594 14.162 105.418 14.162C104.482 14.162 103.642 13.952 102.898 13.532C102.166 13.112 101.59 12.518 101.17 11.75C100.75 10.97 100.54 10.07 100.54 9.05C100.54 8.03 100.744 7.136 101.152 6.368C101.56 5.6 102.13 5.012 102.862 4.604C103.606 4.184 104.458 3.974 105.418 3.974C106.354 3.974 107.182 4.178 107.902 4.586C108.622 4.994 109.174 5.558 109.558 6.278C109.954 6.986 110.152 7.79 110.152 8.69ZM108.46 8.348C108.46 7.724 108.322 7.19 108.046 6.746C107.77 6.29 107.392 5.948 106.912 5.72C106.444 5.48 105.922 5.36 105.346 5.36C104.518 5.36 103.81 5.624 103.222 6.152C102.646 6.68 102.316 7.412 102.232 8.348H108.46ZM113.773 5.738C114.061 5.174 114.469 4.736 114.997 4.424C115.537 4.112 116.191 3.956 116.959 3.956V5.648H116.527C114.691 5.648 113.773 6.644 113.773 8.636V14H112.135V4.136H113.773V5.738ZM120.361 11.732L118.345 16.574H117.247L118.561 11.732H120.361ZM126.209 12.686C127.733 11.462 128.927 10.46 129.791 9.68C130.655 8.888 131.381 8.066 131.969 7.214C132.569 6.35 132.869 5.504 132.869 4.676C132.869 3.896 132.677 3.284 132.293 2.84C131.921 2.384 131.315 2.156 130.475 2.156C129.659 2.156 129.023 2.414 128.567 2.93C128.123 3.434 127.883 4.112 127.847 4.964H126.263C126.311 3.62 126.719 2.582 127.487 1.85C128.255 1.118 129.245 0.751999 130.457 0.751999C131.693 0.751999 132.671 1.094 133.391 1.778C134.123 2.462 134.489 3.404 134.489 4.604C134.489 5.6 134.189 6.572 133.589 7.52C133.001 8.456 132.329 9.284 131.573 10.004C130.817 10.712 129.851 11.54 128.675 12.488H134.867V13.856H126.209V12.686ZM144.59 2.264L139.586 14H137.93L143.006 2.426H136.058V1.022H144.59V2.264ZM146.226 7.358C146.226 5.294 146.562 3.686 147.234 2.534C147.906 1.37 149.082 0.788 150.762 0.788C152.43 0.788 153.6 1.37 154.272 2.534C154.944 3.686 155.28 5.294 155.28 7.358C155.28 9.458 154.944 11.09 154.272 12.254C153.6 13.418 152.43 14 150.762 14C149.082 14 147.906 13.418 147.234 12.254C146.562 11.09 146.226 9.458 146.226 7.358ZM153.66 7.358C153.66 6.314 153.588 5.432 153.444 4.712C153.312 3.98 153.03 3.392 152.598 2.948C152.178 2.504 151.566 2.282 150.762 2.282C149.946 2.282 149.322 2.504 148.89 2.948C148.47 3.392 148.188 3.98 148.044 4.712C147.912 5.432 147.846 6.314 147.846 7.358C147.846 8.438 147.912 9.344 148.044 10.076C148.188 10.808 148.47 11.396 148.89 11.84C149.322 12.284 149.946 12.506 150.762 12.506C151.566 12.506 152.178 12.284 152.598 11.84C153.03 11.396 153.312 10.808 153.444 10.076C153.588 9.344 153.66 8.438 153.66 7.358ZM156.953 11.102V9.86L163.271 1.112H165.233V9.68H167.033V11.102H165.233V14H163.613V11.102H156.953ZM163.685 2.822L158.843 9.68H163.685V2.822ZM181.766 5.126C181.766 6.17 181.406 7.04 180.686 7.736C179.978 8.42 178.892 8.762 177.428 8.762H175.016V14H173.378V1.454H177.428C178.844 1.454 179.918 1.796 180.65 2.48C181.394 3.164 181.766 4.046 181.766 5.126ZM177.428 7.412C178.34 7.412 179.012 7.214 179.444 6.818C179.876 6.422 180.092 5.858 180.092 5.126C180.092 3.578 179.204 2.804 177.428 2.804H175.016V7.412H177.428ZM193.288 1.454V14H191.65V8.312H185.26V14H183.622V1.454H185.26V6.962H191.65V1.454H193.288ZM202.162 12.668H206.554V14H200.524V1.454H202.162V12.668ZM217.113 8.69C217.113 9.002 217.095 9.332 217.059 9.68H209.175C209.235 10.652 209.565 11.414 210.165 11.966C210.777 12.506 211.515 12.776 212.379 12.776C213.087 12.776 213.675 12.614 214.143 12.29C214.623 11.954 214.959 11.51 215.151 10.958H216.915C216.651 11.906 216.123 12.68 215.331 13.28C214.539 13.868 213.555 14.162 212.379 14.162C211.443 14.162 210.603 13.952 209.859 13.532C209.127 13.112 208.551 12.518 208.131 11.75C207.711 10.97 207.501 10.07 207.501 9.05C207.501 8.03 207.705 7.136 208.113 6.368C208.521 5.6 209.091 5.012 209.823 4.604C210.567 4.184 211.419 3.974 212.379 3.974C213.315 3.974 214.143 4.178 214.863 4.586C215.583 4.994 216.135 5.558 216.519 6.278C216.915 6.986 217.113 7.79 217.113 8.69ZM215.421 8.348C215.421 7.724 215.283 7.19 215.007 6.746C214.731 6.29 214.353 5.948 213.873 5.72C213.405 5.48 212.883 5.36 212.307 5.36C211.479 5.36 210.771 5.624 210.183 6.152C209.607 6.68 209.277 7.412 209.193 8.348H215.421ZM222.767 12.488L225.827 4.136H227.573L223.703 14H221.795L217.925 4.136H219.689L222.767 12.488ZM238.005 8.69C238.005 9.002 237.987 9.332 237.951 9.68H230.067C230.127 10.652 230.457 11.414 231.057 11.966C231.669 12.506 232.407 12.776 233.271 12.776C233.979 12.776 234.567 12.614 235.035 12.29C235.515 11.954 235.851 11.51 236.043 10.958H237.807C237.543 11.906 237.015 12.68 236.223 13.28C235.431 13.868 234.447 14.162 233.271 14.162C232.335 14.162 231.495 13.952 230.751 13.532C230.019 13.112 229.443 12.518 229.023 11.75C228.603 10.97 228.393 10.07 228.393 9.05C228.393 8.03 228.597 7.136 229.005 6.368C229.413 5.6 229.983 5.012 230.715 4.604C231.459 4.184 232.311 3.974 233.271 3.974C234.207 3.974 235.035 4.178 235.755 4.586C236.475 4.994 237.027 5.558 237.411 6.278C237.807 6.986 238.005 7.79 238.005 8.69ZM236.313 8.348C236.313 7.724 236.175 7.19 235.899 6.746C235.623 6.29 235.245 5.948 234.765 5.72C234.297 5.48 233.775 5.36 233.199 5.36C232.371 5.36 231.663 5.624 231.075 6.152C230.499 6.68 230.169 7.412 230.085 8.348H236.313ZM241.625 0.68V14H239.987V0.68H241.625ZM248.388 12.686C249.912 11.462 251.106 10.46 251.97 9.68C252.834 8.888 253.56 8.066 254.148 7.214C254.748 6.35 255.048 5.504 255.048 4.676C255.048 3.896 254.856 3.284 254.472 2.84C254.1 2.384 253.494 2.156 252.654 2.156C251.838 2.156 251.202 2.414 250.746 2.93C250.302 3.434 250.062 4.112 250.026 4.964H248.442C248.49 3.62 248.898 2.582 249.666 1.85C250.434 1.118 251.424 0.751999 252.636 0.751999C253.872 0.751999 254.85 1.094 255.57 1.778C256.302 2.462 256.668 3.404 256.668 4.604C256.668 5.6 256.368 6.572 255.768 7.52C255.18 8.456 254.508 9.284 253.752 10.004C252.996 10.712 252.03 11.54 250.854 12.488H257.046V13.856H248.388V12.686ZM266.769 2.264L261.765 14H260.109L265.185 2.426H258.237V1.022H266.769V2.264ZM5.292 28.454C6.66 28.454 7.842 28.712 8.838 29.228C9.846 29.732 10.614 30.458 11.142 31.406C11.682 32.354 11.952 33.47 11.952 34.754C11.952 36.038 11.682 37.154 11.142 38.102C10.614 39.038 9.846 39.758 8.838 40.262C7.842 40.754 6.66 41 5.292 41H1.386V28.454H5.292ZM5.292 39.65C6.912 39.65 8.148 39.224 9 38.372C9.852 37.508 10.278 36.302 10.278 34.754C10.278 33.194 9.846 31.976 8.982 31.1C8.13 30.224 6.9 29.786 5.292 29.786H3.024V39.65H5.292ZM22.6806 31.136V41H21.0426V39.542C20.7306 40.046 20.2926 40.442 19.7286 40.73C19.1766 41.006 18.5646 41.144 17.8926 41.144C17.1246 41.144 16.4346 40.988 15.8226 40.676C15.2106 40.352 14.7246 39.872 14.3646 39.236C14.0166 38.6 13.8426 37.826 13.8426 36.914V31.136H15.4626V36.698C15.4626 37.67 15.7086 38.42 16.2006 38.948C16.6926 39.464 17.3646 39.722 18.2166 39.722C19.0926 39.722 19.7826 39.452 20.2866 38.912C20.7906 38.372 21.0426 37.586 21.0426 36.554V31.136H22.6806ZM26.9042 32.972C27.2402 32.384 27.7322 31.904 28.3802 31.532C29.0282 31.16 29.7662 30.974 30.5942 30.974C31.4822 30.974 32.2802 31.184 32.9882 31.604C33.6962 32.024 34.2542 32.618 34.6622 33.386C35.0702 34.142 35.2742 35.024 35.2742 36.032C35.2742 37.028 35.0702 37.916 34.6622 38.696C34.2542 39.476 33.6902 40.082 32.9702 40.514C32.2622 40.946 31.4702 41.162 30.5942 41.162C29.7422 41.162 28.9922 40.976 28.3442 40.604C27.7082 40.232 27.2282 39.758 26.9042 39.182V41H25.2662V27.68H26.9042V32.972ZM33.6002 36.032C33.6002 35.288 33.4502 34.64 33.1502 34.088C32.8502 33.536 32.4422 33.116 31.9262 32.828C31.4222 32.54 30.8642 32.396 30.2522 32.396C29.6522 32.396 29.0942 32.546 28.5782 32.846C28.0742 33.134 27.6662 33.56 27.3542 34.124C27.0542 34.676 26.9042 35.318 26.9042 36.05C26.9042 36.794 27.0542 37.448 27.3542 38.012C27.6662 38.564 28.0742 38.99 28.5782 39.29C29.0942 39.578 29.6522 39.722 30.2522 39.722C30.8642 39.722 31.4222 39.578 31.9262 39.29C32.4422 38.99 32.8502 38.564 33.1502 38.012C33.4502 37.448 33.6002 36.788 33.6002 36.032ZM36.6383 36.032C36.6383 35.024 36.8423 34.142 37.2503 33.386C37.6583 32.618 38.2163 32.024 38.9243 31.604C39.6443 31.184 40.4423 30.974 41.3183 30.974C42.1823 30.974 42.9323 31.16 43.5683 31.532C44.2043 31.904 44.6783 32.372 44.9903 32.936V31.136H46.6463V41H44.9903V39.164C44.6663 39.74 44.1803 40.22 43.5323 40.604C42.8963 40.976 42.1523 41.162 41.3003 41.162C40.4243 41.162 39.6323 40.946 38.9243 40.514C38.2163 40.082 37.6583 39.476 37.2503 38.696C36.8423 37.916 36.6383 37.028 36.6383 36.032ZM44.9903 36.05C44.9903 35.306 44.8403 34.658 44.5403 34.106C44.2403 33.554 43.8323 33.134 43.3163 32.846C42.8123 32.546 42.2543 32.396 41.6423 32.396C41.0303 32.396 40.4723 32.54 39.9683 32.828C39.4643 33.116 39.0623 33.536 38.7623 34.088C38.4623 34.64 38.3123 35.288 38.3123 36.032C38.3123 36.788 38.4623 37.448 38.7623 38.012C39.0623 38.564 39.4643 38.99 39.9683 39.29C40.4723 39.578 41.0303 39.722 41.6423 39.722C42.2543 39.722 42.8123 39.578 43.3163 39.29C43.8323 38.99 44.2403 38.564 44.5403 38.012C44.8403 37.448 44.9903 36.794 44.9903 36.05ZM50.0804 29.534C49.7684 29.534 49.5044 29.426 49.2884 29.21C49.0724 28.994 48.9644 28.73 48.9644 28.418C48.9644 28.106 49.0724 27.842 49.2884 27.626C49.5044 27.41 49.7684 27.302 50.0804 27.302C50.3804 27.302 50.6324 27.41 50.8364 27.626C51.0524 27.842 51.1604 28.106 51.1604 28.418C51.1604 28.73 51.0524 28.994 50.8364 29.21C50.6324 29.426 50.3804 29.534 50.0804 29.534ZM50.8724 31.136V41H49.2344V31.136H50.8724ZM66.1309 29.408H59.8129V33.512C60.0889 33.128 60.4969 32.816 61.0369 32.576C61.5769 32.324 62.1589 32.198 62.7829 32.198C63.7789 32.198 64.5889 32.408 65.2129 32.828C65.8369 33.236 66.2809 33.77 66.5449 34.43C66.8209 35.078 66.9589 35.768 66.9589 36.5C66.9589 37.364 66.7969 38.138 66.4729 38.822C66.1489 39.506 65.6509 40.046 64.9789 40.442C64.3189 40.838 63.4969 41.036 62.5129 41.036C61.2529 41.036 60.2329 40.712 59.4529 40.064C58.6729 39.416 58.1989 38.552 58.0309 37.472H59.6329C59.7889 38.156 60.1189 38.69 60.6229 39.074C61.1269 39.458 61.7629 39.65 62.5309 39.65C63.4789 39.65 64.1929 39.368 64.6729 38.804C65.1529 38.228 65.3929 37.472 65.3929 36.536C65.3929 35.6 65.1529 34.88 64.6729 34.376C64.1929 33.86 63.4849 33.602 62.5489 33.602C61.9129 33.602 61.3549 33.758 60.8749 34.07C60.4069 34.37 60.0649 34.784 59.8489 35.312H58.3009V27.968H66.1309V29.408ZM68.9556 34.358C68.9556 32.294 69.2916 30.686 69.9636 29.534C70.6356 28.37 71.8116 27.788 73.4916 27.788C75.1596 27.788 76.3296 28.37 77.0016 29.534C77.6736 30.686 78.0096 32.294 78.0096 34.358C78.0096 36.458 77.6736 38.09 77.0016 39.254C76.3296 40.418 75.1596 41 73.4916 41C71.8116 41 70.6356 40.418 69.9636 39.254C69.2916 38.09 68.9556 36.458 68.9556 34.358ZM76.3896 34.358C76.3896 33.314 76.3176 32.432 76.1736 31.712C76.0416 30.98 75.7596 30.392 75.3276 29.948C74.9076 29.504 74.2956 29.282 73.4916 29.282C72.6756 29.282 72.0516 29.504 71.6196 29.948C71.1996 30.392 70.9176 30.98 70.7736 31.712C70.6416 32.432 70.5756 33.314 70.5756 34.358C70.5756 35.438 70.6416 36.344 70.7736 37.076C70.9176 37.808 71.1996 38.396 71.6196 38.84C72.0516 39.284 72.6756 39.506 73.4916 39.506C74.2956 39.506 74.9076 39.284 75.3276 38.84C75.7596 38.396 76.0416 37.808 76.1736 37.076C76.3176 36.344 76.3896 35.438 76.3896 34.358ZM80.0783 34.358C80.0783 32.294 80.4143 30.686 81.0863 29.534C81.7583 28.37 82.9343 27.788 84.6143 27.788C86.2823 27.788 87.4523 28.37 88.1243 29.534C88.7963 30.686 89.1323 32.294 89.1323 34.358C89.1323 36.458 88.7963 38.09 88.1243 39.254C87.4523 40.418 86.2823 41 84.6143 41C82.9343 41 81.7583 40.418 81.0863 39.254C80.4143 38.09 80.0783 36.458 80.0783 34.358ZM87.5123 34.358C87.5123 33.314 87.4403 32.432 87.2963 31.712C87.1643 30.98 86.8823 30.392 86.4503 29.948C86.0303 29.504 85.4183 29.282 84.6143 29.282C83.7983 29.282 83.1743 29.504 82.7423 29.948C82.3223 30.392 82.0403 30.98 81.8963 31.712C81.7643 32.432 81.6983 33.314 81.6983 34.358C81.6983 35.438 81.7643 36.344 81.8963 37.076C82.0403 37.808 82.3223 38.396 82.7423 38.84C83.1743 39.284 83.7983 39.506 84.6143 39.506C85.4183 39.506 86.0303 39.284 86.4503 38.84C86.8823 38.396 87.1643 37.808 87.2963 37.076C87.4403 36.344 87.5123 35.438 87.5123 34.358ZM91.0031 39.686C92.5271 38.462 93.7211 37.46 94.5851 36.68C95.4491 35.888 96.1751 35.066 96.7631 34.214C97.3631 33.35 97.6631 32.504 97.6631 31.676C97.6631 30.896 97.4711 30.284 97.0871 29.84C96.7151 29.384 96.1091 29.156 95.2691 29.156C94.4531 29.156 93.8171 29.414 93.3611 29.93C92.9171 30.434 92.6771 31.112 92.6411 31.964H91.0571C91.1051 30.62 91.5131 29.582 92.2811 28.85C93.0491 28.118 94.0391 27.752 95.2511 27.752C96.4871 27.752 97.4651 28.094 98.1851 28.778C98.9171 29.462 99.2831 30.404 99.2831 31.604C99.2831 32.6 98.9831 33.572 98.3831 34.52C97.7951 35.456 97.1231 36.284 96.3671 37.004C95.6111 37.712 94.6451 38.54 93.4691 39.488H99.6611V40.856H91.0031V39.686ZM100.979 38.102V36.86L107.297 28.112H109.259V36.68H111.059V38.102H109.259V41H107.639V38.102H100.979ZM107.711 29.822L102.869 36.68H107.711V29.822ZM112.119 38.102V36.86L118.437 28.112H120.399V36.68H122.199V38.102H120.399V41H118.779V38.102H112.119ZM118.851 29.822L114.009 36.68H118.851V29.822ZM125.617 38.732L123.601 43.574H122.503L123.817 38.732H125.617ZM133.534 28.454V36.392C133.534 37.508 133.804 38.336 134.344 38.876C134.896 39.416 135.658 39.686 136.63 39.686C137.59 39.686 138.34 39.416 138.88 38.876C139.432 38.336 139.708 37.508 139.708 36.392V28.454H141.346V36.374C141.346 37.418 141.136 38.3 140.716 39.02C140.296 39.728 139.726 40.256 139.006 40.604C138.298 40.952 137.5 41.126 136.612 41.126C135.724 41.126 134.92 40.952 134.2 40.604C133.492 40.256 132.928 39.728 132.508 39.02C132.1 38.3 131.896 37.418 131.896 36.374V28.454H133.534ZM148.705 30.956C149.905 30.956 150.877 31.322 151.621 32.054C152.365 32.774 152.737 33.818 152.737 35.186V41H151.117V35.42C151.117 34.436 150.871 33.686 150.379 33.17C149.887 32.642 149.215 32.378 148.363 32.378C147.499 32.378 146.809 32.648 146.293 33.188C145.789 33.728 145.537 34.514 145.537 35.546V41H143.899V31.136H145.537V32.54C145.861 32.036 146.299 31.646 146.851 31.37C147.415 31.094 148.033 30.956 148.705 30.956ZM156.079 29.534C155.767 29.534 155.503 29.426 155.287 29.21C155.071 28.994 154.963 28.73 154.963 28.418C154.963 28.106 155.071 27.842 155.287 27.626C155.503 27.41 155.767 27.302 156.079 27.302C156.379 27.302 156.631 27.41 156.835 27.626C157.051 27.842 157.159 28.106 157.159 28.418C157.159 28.73 157.051 28.994 156.835 29.21C156.631 29.426 156.379 29.534 156.079 29.534ZM156.871 31.136V41H155.233V31.136H156.871ZM161.48 32.486V38.3C161.48 38.78 161.582 39.122 161.786 39.326C161.99 39.518 162.344 39.614 162.848 39.614H164.054V41H162.578C161.666 41 160.982 40.79 160.526 40.37C160.07 39.95 159.842 39.26 159.842 38.3V32.486H158.564V31.136H159.842V28.652H161.48V31.136H164.054V32.486H161.48ZM174.859 35.69C174.859 36.002 174.841 36.332 174.805 36.68H166.921C166.981 37.652 167.311 38.414 167.911 38.966C168.523 39.506 169.261 39.776 170.125 39.776C170.833 39.776 171.421 39.614 171.889 39.29C172.369 38.954 172.705 38.51 172.897 37.958H174.661C174.397 38.906 173.869 39.68 173.077 40.28C172.285 40.868 171.301 41.162 170.125 41.162C169.189 41.162 168.349 40.952 167.605 40.532C166.873 40.112 166.297 39.518 165.877 38.75C165.457 37.97 165.247 37.07 165.247 36.05C165.247 35.03 165.451 34.136 165.859 33.368C166.267 32.6 166.837 32.012 167.569 31.604C168.313 31.184 169.165 30.974 170.125 30.974C171.061 30.974 171.889 31.178 172.609 31.586C173.329 31.994 173.881 32.558 174.265 33.278C174.661 33.986 174.859 34.79 174.859 35.69ZM173.167 35.348C173.167 34.724 173.029 34.19 172.753 33.746C172.477 33.29 172.099 32.948 171.619 32.72C171.151 32.48 170.629 32.36 170.053 32.36C169.225 32.36 168.517 32.624 167.929 33.152C167.353 33.68 167.023 34.412 166.939 35.348H173.167ZM176.229 36.032C176.229 35.024 176.433 34.142 176.841 33.386C177.249 32.618 177.807 32.024 178.515 31.604C179.235 31.184 180.039 30.974 180.927 30.974C181.695 30.974 182.409 31.154 183.069 31.514C183.729 31.862 184.233 32.324 184.581 32.9V27.68H186.237V41H184.581V39.146C184.257 39.734 183.777 40.22 183.141 40.604C182.505 40.976 181.761 41.162 180.909 41.162C180.033 41.162 179.235 40.946 178.515 40.514C177.807 40.082 177.249 39.476 176.841 38.696C176.433 37.916 176.229 37.028 176.229 36.032ZM184.581 36.05C184.581 35.306 184.431 34.658 184.131 34.106C183.831 33.554 183.423 33.134 182.907 32.846C182.403 32.546 181.845 32.396 181.233 32.396C180.621 32.396 180.063 32.54 179.559 32.828C179.055 33.116 178.653 33.536 178.353 34.088C178.053 34.64 177.903 35.288 177.903 36.032C177.903 36.788 178.053 37.448 178.353 38.012C178.653 38.564 179.055 38.99 179.559 39.29C180.063 39.578 180.621 39.722 181.233 39.722C181.845 39.722 182.403 39.578 182.907 39.29C183.423 38.99 183.831 38.564 184.131 38.012C184.431 37.448 184.581 36.794 184.581 36.05ZM200.86 38.21H195.388L194.38 41H192.652L197.188 28.526H199.078L203.596 41H201.868L200.86 38.21ZM200.392 36.878L198.124 30.542L195.856 36.878H200.392ZM207.031 32.738C207.319 32.174 207.727 31.736 208.255 31.424C208.795 31.112 209.449 30.956 210.217 30.956V32.648H209.785C207.949 32.648 207.031 33.644 207.031 35.636V41H205.393V31.136H207.031V32.738ZM211.316 36.032C211.316 35.024 211.52 34.142 211.928 33.386C212.336 32.618 212.894 32.024 213.602 31.604C214.322 31.184 215.12 30.974 215.996 30.974C216.86 30.974 217.61 31.16 218.246 31.532C218.882 31.904 219.356 32.372 219.668 32.936V31.136H221.324V41H219.668V39.164C219.344 39.74 218.858 40.22 218.21 40.604C217.574 40.976 216.83 41.162 215.978 41.162C215.102 41.162 214.31 40.946 213.602 40.514C212.894 40.082 212.336 39.476 211.928 38.696C211.52 37.916 211.316 37.028 211.316 36.032ZM219.668 36.05C219.668 35.306 219.518 34.658 219.218 34.106C218.918 33.554 218.51 33.134 217.994 32.846C217.49 32.546 216.932 32.396 216.32 32.396C215.708 32.396 215.15 32.54 214.646 32.828C214.142 33.116 213.74 33.536 213.44 34.088C213.14 34.64 212.99 35.288 212.99 36.032C212.99 36.788 213.14 37.448 213.44 38.012C213.74 38.564 214.142 38.99 214.646 39.29C215.15 39.578 215.708 39.722 216.32 39.722C216.932 39.722 217.49 39.578 217.994 39.29C218.51 38.99 218.918 38.564 219.218 38.012C219.518 37.448 219.668 36.794 219.668 36.05ZM225.55 32.972C225.886 32.384 226.378 31.904 227.026 31.532C227.674 31.16 228.412 30.974 229.24 30.974C230.128 30.974 230.926 31.184 231.634 31.604C232.342 32.024 232.9 32.618 233.308 33.386C233.716 34.142 233.92 35.024 233.92 36.032C233.92 37.028 233.716 37.916 233.308 38.696C232.9 39.476 232.336 40.082 231.616 40.514C230.908 40.946 230.116 41.162 229.24 41.162C228.388 41.162 227.638 40.976 226.99 40.604C226.354 40.232 225.874 39.758 225.55 39.182V41H223.912V27.68H225.55V32.972ZM232.246 36.032C232.246 35.288 232.096 34.64 231.796 34.088C231.496 33.536 231.088 33.116 230.572 32.828C230.068 32.54 229.51 32.396 228.898 32.396C228.298 32.396 227.74 32.546 227.224 32.846C226.72 33.134 226.312 33.56 226 34.124C225.7 34.676 225.55 35.318 225.55 36.05C225.55 36.794 225.7 37.448 226 38.012C226.312 38.564 226.72 38.99 227.224 39.29C227.74 39.578 228.298 39.722 228.898 39.722C229.51 39.722 230.068 39.578 230.572 39.29C231.088 38.99 231.496 38.564 231.796 38.012C232.096 37.448 232.246 36.788 232.246 36.032ZM242.153 29.786V33.98H246.725V35.33H242.153V39.65H247.265V41H240.515V28.436H247.265V29.786H242.153ZM261.425 30.956C262.193 30.956 262.877 31.118 263.477 31.442C264.077 31.754 264.551 32.228 264.899 32.864C265.247 33.5 265.421 34.274 265.421 35.186V41H263.801V35.42C263.801 34.436 263.555 33.686 263.063 33.17C262.583 32.642 261.929 32.378 261.101 32.378C260.249 32.378 259.571 32.654 259.067 33.206C258.563 33.746 258.311 34.532 258.311 35.564V41H256.691V35.42C256.691 34.436 256.445 33.686 255.953 33.17C255.473 32.642 254.819 32.378 253.991 32.378C253.139 32.378 252.461 32.654 251.957 33.206C251.453 33.746 251.201 34.532 251.201 35.564V41H249.563V31.136H251.201V32.558C251.525 32.042 251.957 31.646 252.497 31.37C253.049 31.094 253.655 30.956 254.315 30.956C255.143 30.956 255.875 31.142 256.511 31.514C257.147 31.886 257.621 32.432 257.933 33.152C258.209 32.456 258.665 31.916 259.301 31.532C259.937 31.148 260.645 30.956 261.425 30.956ZM268.774 29.534C268.462 29.534 268.198 29.426 267.982 29.21C267.766 28.994 267.658 28.73 267.658 28.418C267.658 28.106 267.766 27.842 267.982 27.626C268.198 27.41 268.462 27.302 268.774 27.302C269.074 27.302 269.326 27.41 269.53 27.626C269.746 27.842 269.854 28.106 269.854 28.418C269.854 28.73 269.746 28.994 269.53 29.21C269.326 29.426 269.074 29.534 268.774 29.534ZM269.566 31.136V41H267.928V31.136H269.566ZM273.816 32.738C274.104 32.174 274.512 31.736 275.04 31.424C275.58 31.112 276.234 30.956 277.002 30.956V32.648H276.57C274.734 32.648 273.816 33.644 273.816 35.636V41H272.178V31.136H273.816V32.738ZM278.101 36.032C278.101 35.024 278.305 34.142 278.713 33.386C279.121 32.618 279.679 32.024 280.387 31.604C281.107 31.184 281.905 30.974 282.781 30.974C283.645 30.974 284.395 31.16 285.031 31.532C285.667 31.904 286.141 32.372 286.453 32.936V31.136H288.109V41H286.453V39.164C286.129 39.74 285.643 40.22 284.995 40.604C284.359 40.976 283.615 41.162 282.763 41.162C281.887 41.162 281.095 40.946 280.387 40.514C279.679 40.082 279.121 39.476 278.713 38.696C278.305 37.916 278.101 37.028 278.101 36.032ZM286.453 36.05C286.453 35.306 286.303 34.658 286.003 34.106C285.703 33.554 285.295 33.134 284.779 32.846C284.275 32.546 283.717 32.396 283.105 32.396C282.493 32.396 281.935 32.54 281.431 32.828C280.927 33.116 280.525 33.536 280.225 34.088C279.925 34.64 279.775 35.288 279.775 36.032C279.775 36.788 279.925 37.448 280.225 38.012C280.525 38.564 280.927 38.99 281.431 39.29C281.935 39.578 282.493 39.722 283.105 39.722C283.717 39.722 284.275 39.578 284.779 39.29C285.295 38.99 285.703 38.564 286.003 38.012C286.303 37.448 286.453 36.794 286.453 36.05ZM292.695 32.486V38.3C292.695 38.78 292.797 39.122 293.001 39.326C293.205 39.518 293.559 39.614 294.063 39.614H295.269V41H293.793C292.881 41 292.197 40.79 291.741 40.37C291.285 39.95 291.057 39.26 291.057 38.3V32.486H289.779V31.136H291.057V28.652H292.695V31.136H295.269V32.486H292.695ZM306.073 35.69C306.073 36.002 306.055 36.332 306.019 36.68H298.135C298.195 37.652 298.525 38.414 299.125 38.966C299.737 39.506 300.475 39.776 301.339 39.776C302.047 39.776 302.635 39.614 303.103 39.29C303.583 38.954 303.919 38.51 304.111 37.958H305.875C305.611 38.906 305.083 39.68 304.291 40.28C303.499 40.868 302.515 41.162 301.339 41.162C300.403 41.162 299.563 40.952 298.819 40.532C298.087 40.112 297.511 39.518 297.091 38.75C296.671 37.97 296.461 37.07 296.461 36.05C296.461 35.03 296.665 34.136 297.073 33.368C297.481 32.6 298.051 32.012 298.783 31.604C299.527 31.184 300.379 30.974 301.339 30.974C302.275 30.974 303.103 31.178 303.823 31.586C304.543 31.994 305.095 32.558 305.479 33.278C305.875 33.986 306.073 34.79 306.073 35.69ZM304.381 35.348C304.381 34.724 304.243 34.19 303.967 33.746C303.691 33.29 303.313 32.948 302.833 32.72C302.365 32.48 301.843 32.36 301.267 32.36C300.439 32.36 299.731 32.624 299.143 33.152C298.567 33.68 298.237 34.412 298.153 35.348H304.381ZM311.547 41.162C310.791 41.162 310.113 41.036 309.513 40.784C308.913 40.52 308.439 40.16 308.091 39.704C307.743 39.236 307.551 38.702 307.515 38.102H309.207C309.255 38.594 309.483 38.996 309.891 39.308C310.311 39.62 310.857 39.776 311.529 39.776C312.153 39.776 312.645 39.638 313.005 39.362C313.365 39.086 313.545 38.738 313.545 38.318C313.545 37.886 313.353 37.568 312.969 37.364C312.585 37.148 311.991 36.938 311.187 36.734C310.455 36.542 309.855 36.35 309.387 36.158C308.931 35.954 308.535 35.66 308.199 35.276C307.875 34.88 307.713 34.364 307.713 33.728C307.713 33.224 307.863 32.762 308.163 32.342C308.463 31.922 308.889 31.592 309.441 31.352C309.993 31.1 310.623 30.974 311.331 30.974C312.423 30.974 313.305 31.25 313.977 31.802C314.649 32.354 315.009 33.11 315.057 34.07H313.419C313.383 33.554 313.173 33.14 312.789 32.828C312.417 32.516 311.913 32.36 311.277 32.36C310.689 32.36 310.221 32.486 309.873 32.738C309.525 32.99 309.351 33.32 309.351 33.728C309.351 34.052 309.453 34.322 309.657 34.538C309.873 34.742 310.137 34.91 310.449 35.042C310.773 35.162 311.217 35.3 311.781 35.456C312.489 35.648 313.065 35.84 313.509 36.032C313.953 36.212 314.331 36.488 314.643 36.86C314.967 37.232 315.135 37.718 315.147 38.318C315.147 38.858 314.997 39.344 314.697 39.776C314.397 40.208 313.971 40.55 313.419 40.802C312.879 41.042 312.255 41.162 311.547 41.162Z" fill="#1E2243"/>
</svg>
