<svg width="337" height="56" viewBox="0 0 337 56" fill="none" xmlns="http://www.w3.org/2000/svg">
<path d="M21.43 16.6868C19.6584 14.5152 17.144 13.3152 13.9438 13.3152C5.60036 13.3723 0 19.1441 0 27.7732C0 36.3452 5.60036 42.3456 13.9438 42.2313C17.144 42.2313 19.6584 40.9741 21.43 38.8025L22.3443 41.0312C22.4586 41.3741 22.63 41.6027 22.9729 41.6027H29.0305C29.4305 41.6027 29.6591 41.317 29.6019 41.0312V14.3438C29.6019 14.0009 29.3733 13.7723 29.0876 13.7723H23.0301C22.6872 13.7723 22.5157 14.0009 22.4015 14.3438L21.43 16.6868ZM8.3434 27.7732C8.3434 24.1159 10.7436 21.6586 14.4009 21.6586C18.0583 21.6586 20.5728 24.1159 20.5728 27.7732C20.5728 31.4878 18.1155 33.8879 14.4009 33.8879C10.8578 33.8879 8.3434 31.3735 8.3434 27.7732Z" fill="url(#paint0_linear_1076_2932)"/>
<path d="M44.4471 42.2313C47.7044 42.2313 50.2189 40.9741 51.9904 38.6882L52.9048 41.0312C53.0191 41.3741 53.2477 41.6027 53.5905 41.6027H58.848C59.1909 41.6027 59.4766 41.4313 59.4766 41.0312V0.4572C59.4766 0.4572 55.6179 0.4572 55.2179 0.4572H51.7891C51.0761 0.432947 51.0761 0.4572 51.0761 0.857198V15.8296C49.3617 14.2295 47.1901 13.3152 44.4471 13.3152C36.1037 13.3152 30.5033 19.1441 30.5033 27.7732C30.5033 36.3452 36.1037 42.2313 44.4471 42.2313ZM51.0189 27.7732C51.0189 31.6021 48.5045 33.8879 44.9043 33.8879C41.3612 33.8879 38.8467 31.3735 38.8467 27.7732C38.8467 24.1159 41.2469 21.6014 44.9043 21.6014C48.6188 21.6014 51.0761 24.0587 51.0189 27.7732Z" fill="url(#paint1_linear_1076_2932)"/>
<path d="M90.8505 14.5152C91.022 14.1152 90.8505 13.7723 90.3934 13.7723H82.6786C82.3929 13.7723 82.1643 13.9438 82.05 14.2295L76.0496 31.6021L70.0492 14.2295C69.9349 13.9438 69.6492 13.7723 69.4206 13.7723H61.7629C61.2486 13.7723 61.0772 14.1152 61.2486 14.5152L71.1921 41.0884C71.3064 41.4313 71.6493 41.6027 71.935 41.6027H80.1641C80.507 41.6027 80.8499 41.4313 80.9642 41.0884L90.8505 14.5152Z" fill="url(#paint2_linear_1076_2932)"/>
<path d="M98.8243 25.0873C99.51 22.7443 101.282 21.0871 104.425 21.0871C107.511 21.0871 109.225 22.7443 109.911 25.0873H98.8243ZM99.0529 30.9734H118.14C118.54 30.9734 118.768 30.7449 118.768 30.3448C118.768 18.1726 112.882 13.3152 104.425 13.3152C95.7955 13.3152 90.0237 19.1441 90.0237 27.7732C90.0237 36.4595 95.8526 42.2313 104.539 42.2313C109.282 42.1742 113.168 41.1455 115.74 38.4025C115.968 38.1168 115.911 37.7739 115.683 37.5453L111.282 32.8593C111.168 32.745 111.054 32.6878 110.882 32.6878C110.711 32.6878 110.539 32.745 110.311 32.9164C109.339 33.6593 107.511 34.4594 105.11 34.4594C101.853 34.4594 99.9672 33.0307 99.0529 30.9734Z" fill="url(#paint3_linear_1076_2932)"/>
<path d="M136.697 22.5158C136.812 22.5729 136.926 22.5729 136.983 22.5729C137.269 22.5729 137.497 22.4015 137.554 22.1729L139.326 14.6295C139.44 14.2866 139.269 14.0009 138.926 13.8866C138.012 13.658 136.64 13.2009 134.811 13.2009C132.068 13.2009 129.725 14.3438 127.897 15.9439L127.211 14.4009C127.154 14.1724 126.925 13.7723 126.411 13.7723H121.325C120.982 13.8295 120.753 14.0009 120.753 14.4009V40.9741C120.753 41.3741 120.982 41.6027 121.382 41.6027H128.64C129.04 41.6027 129.211 41.3741 129.211 40.9741V24.2301C130.068 22.5729 131.783 21.7157 133.154 21.7157C134.297 21.7157 135.897 22.1729 136.697 22.5158Z" fill="url(#paint4_linear_1076_2932)"/>
<path d="M152.468 27.5447L152.526 21.6014H157.326C157.669 21.6014 157.897 21.3728 157.897 21.0871V14.3438C157.897 14.0009 157.669 13.7723 157.326 13.7723H152.526V5.7718C152.526 5.42893 152.297 5.20034 151.954 5.20034H144.811C144.468 5.20034 144.296 5.42893 144.296 5.7718L144.239 13.7723H141.096C140.753 13.7723 140.525 14.0009 140.525 14.3438V21.0871C140.525 21.3728 140.753 21.6014 141.096 21.6014H144.239V32.8593C144.182 38.2311 147.039 42.117 152.64 42.117C155.554 42.117 157.954 40.917 158.755 40.2883C159.04 40.174 159.097 39.774 158.983 39.374L157.097 33.0879C157.04 32.9164 156.812 32.8021 156.583 32.8021C156.469 32.8021 156.411 32.8021 156.297 32.8593C155.954 32.9736 154.983 33.545 154.297 33.545C152.583 33.545 152.526 32.1735 152.468 27.5447Z" fill="url(#paint5_linear_1076_2932)"/>
<path d="M169.084 14.2866C169.084 14.0009 168.855 13.7723 168.569 13.7723H161.369C160.969 13.7723 160.74 14.0009 160.74 14.4009V41.0312C160.74 41.3741 160.969 41.6027 161.312 41.6027H168.512C168.912 41.6027 169.084 41.3741 169.084 41.0312V14.2866ZM159.769 5.0289C159.769 8.11481 161.883 10.1721 164.912 10.1721C167.998 10.1721 169.998 8.11481 169.998 5.0289C169.998 2.00013 167.998 0 164.912 0C161.883 0 159.769 2.00013 159.769 5.0289Z" fill="url(#paint6_linear_1076_2932)"/>
<path d="M171.775 39.0883C172.804 39.8883 177.547 42.117 183.09 42.117C189.719 42.1742 194.348 38.6311 194.176 32.8593C194.005 27.6589 190.519 25.6017 184.347 24.2873C181.604 23.7158 179.89 23.1444 179.89 22.1157C179.89 21.4871 181.147 20.8585 183.033 20.8585C183.49 20.8585 184.004 20.8585 184.576 20.9728C187.319 21.4871 188.862 22.5158 189.548 22.8015C189.662 22.8586 189.776 22.8586 189.948 22.8586C190.176 22.8586 190.405 22.7443 190.462 22.5729L193.376 17.144C193.548 16.8582 193.434 16.5154 193.205 16.3439C192.291 15.601 188.29 13.2009 183.319 13.2009C176.918 13.1437 171.261 16.1725 171.489 22.2872C171.661 26.4589 174.518 29.0876 179.661 30.5734C183.09 31.6021 185.776 32.1164 185.776 33.3165C185.776 34.0022 184.404 34.5165 182.576 34.5165C179.947 34.5165 177.604 33.545 175.261 32.345C175.147 32.2878 175.032 32.2307 174.918 32.2307C174.689 32.2307 174.518 32.345 174.404 32.5735L171.604 38.2882C171.432 38.6311 171.489 38.8597 171.775 39.0883Z" fill="url(#paint7_linear_1076_2932)"/>
<path d="M204.916 14.2866C204.916 14.0009 204.688 13.7723 204.402 13.7723H197.202C196.802 13.7723 196.573 14.0009 196.573 14.4009V41.0312C196.573 41.3741 196.802 41.6027 197.145 41.6027H204.345C204.745 41.6027 204.916 41.3741 204.916 41.0312V14.2866ZM195.602 5.0289C195.602 8.11481 197.716 10.1721 200.745 10.1721C203.831 10.1721 205.831 8.11481 205.831 5.0289C205.831 2.00013 203.831 0 200.745 0C197.716 0 195.602 2.00013 195.602 5.0289Z" fill="url(#paint8_linear_1076_2932)"/>
<path d="M207.208 41.0312C207.208 41.317 207.493 41.5456 207.836 41.5456H215.037C215.322 41.5456 215.608 41.317 215.608 41.0312V28.059C215.837 23.1444 218.123 21.6014 220.294 21.5443C222.923 21.4871 224.923 23.7158 224.923 27.4875V40.9741C224.923 41.317 225.152 41.6027 225.495 41.6027H232.752C233.095 41.6027 233.324 41.3741 233.324 40.9741V25.5445C233.324 18.0583 229.038 13.0866 222.98 13.0866C219.38 13.0866 216.808 14.3438 215.037 16.5154L214.465 14.3438C214.351 14.0009 214.122 13.7723 213.722 13.7723H207.779C207.436 13.7723 207.208 14.0009 207.208 14.4009V41.0312Z" fill="url(#paint9_linear_1076_2932)"/>
<path d="M249.25 13.1437C240.792 13.1437 235.192 19.087 235.192 27.7161C235.192 36.4024 240.792 42.1742 249.25 42.2885C252.107 42.2885 254.393 41.317 256.107 39.6026V39.7169C256.107 44.0029 253.821 46.803 249.135 46.803C246.049 46.6888 243.021 45.3744 241.821 44.7458C241.706 44.6886 241.592 44.6886 241.478 44.6886C241.306 44.6886 241.078 44.8029 241.021 44.9744L237.992 51.3176C237.763 51.7177 237.877 52.0034 238.22 52.232C239.992 53.3178 243.878 55.1464 249.764 55.2036C258.565 55.2036 264.565 49.2032 264.565 40.174L264.451 14.4009C264.451 14.0009 264.222 13.7723 263.879 13.7723H258.793C258.507 13.8295 258.279 13.8295 258.107 14.3438L257.022 16.9154C255.193 14.5152 252.621 13.1437 249.25 13.1437ZM243.592 27.6589C243.592 23.8873 246.049 21.5443 249.764 21.5443C253.65 21.5443 256.05 23.9444 256.05 27.6589C256.05 31.3735 253.536 33.7736 249.65 33.8308C246.049 33.8308 243.592 31.3735 243.592 27.6589Z" fill="url(#paint10_linear_1076_2932)"/>
<mask id="mask0_1076_2932" style="mask-type:alpha" maskUnits="userSpaceOnUse" x="0" y="0" width="265" height="56">
<path d="M21.43 16.6868C19.6584 14.5152 17.144 13.3152 13.9438 13.3152C5.60036 13.3723 0 19.1441 0 27.7732C0 36.3452 5.60036 42.3456 13.9438 42.2313C17.144 42.2313 19.6584 40.9741 21.43 38.8025L22.3443 41.0312C22.4586 41.3741 22.63 41.6027 22.9729 41.6027H29.0305C29.4305 41.6027 29.6591 41.317 29.6019 41.0312V14.3438C29.6019 14.0009 29.3733 13.7723 29.0876 13.7723H23.0301C22.6872 13.7723 22.5157 14.0009 22.4015 14.3438L21.43 16.6868ZM8.3434 27.7732C8.3434 24.1159 10.7436 21.6586 14.4009 21.6586C18.0583 21.6586 20.5728 24.1159 20.5728 27.7732C20.5728 31.4878 18.1155 33.8879 14.4009 33.8879C10.8578 33.8879 8.3434 31.3735 8.3434 27.7732Z" fill="url(#paint11_linear_1076_2932)"/>
<path d="M44.4471 42.2313C47.7044 42.2313 50.2189 40.9741 51.9904 38.6882L52.9048 41.0312C53.0191 41.3741 53.2477 41.6027 53.5905 41.6027H58.848C59.1909 41.6027 59.4766 41.4313 59.4766 41.0312V0.4572C59.4766 0.4572 55.6179 0.4572 55.2179 0.4572H51.7891C51.0761 0.432947 51.0761 0.4572 51.0761 0.857198V15.8296C49.3617 14.2295 47.1901 13.3152 44.4471 13.3152C36.1037 13.3152 30.5033 19.1441 30.5033 27.7732C30.5033 36.3452 36.1037 42.2313 44.4471 42.2313ZM51.0189 27.7732C51.0189 31.6021 48.5045 33.8879 44.9043 33.8879C41.3612 33.8879 38.8467 31.3735 38.8467 27.7732C38.8467 24.1159 41.2469 21.6014 44.9043 21.6014C48.6188 21.6014 51.0761 24.0587 51.0189 27.7732Z" fill="url(#paint12_linear_1076_2932)"/>
<path d="M90.8505 14.5152C91.022 14.1152 90.8505 13.7723 90.3934 13.7723H82.6786C82.3929 13.7723 82.1643 13.9438 82.05 14.2295L76.0496 31.6021L70.0492 14.2295C69.9349 13.9438 69.6492 13.7723 69.4206 13.7723H61.7629C61.2486 13.7723 61.0772 14.1152 61.2486 14.5152L71.1921 41.0884C71.3064 41.4313 71.6493 41.6027 71.935 41.6027H80.1641C80.507 41.6027 80.8499 41.4313 80.9642 41.0884L90.8505 14.5152Z" fill="url(#paint13_linear_1076_2932)"/>
<path d="M98.8243 25.0873C99.51 22.7443 101.282 21.0871 104.425 21.0871C107.511 21.0871 109.225 22.7443 109.911 25.0873H98.8243ZM99.0529 30.9734H118.14C118.54 30.9734 118.768 30.7449 118.768 30.3448C118.768 18.1726 112.882 13.3152 104.425 13.3152C95.7955 13.3152 90.0237 19.1441 90.0237 27.7732C90.0237 36.4595 95.8526 42.2313 104.539 42.2313C109.282 42.1742 113.168 41.1455 115.74 38.4025C115.968 38.1168 115.911 37.7739 115.683 37.5453L111.282 32.8593C111.168 32.745 111.054 32.6878 110.882 32.6878C110.711 32.6878 110.539 32.745 110.311 32.9164C109.339 33.6593 107.511 34.4594 105.11 34.4594C101.853 34.4594 99.9672 33.0307 99.0529 30.9734Z" fill="url(#paint14_linear_1076_2932)"/>
<path d="M136.697 22.5158C136.812 22.5729 136.926 22.5729 136.983 22.5729C137.269 22.5729 137.497 22.4015 137.554 22.1729L139.326 14.6295C139.44 14.2866 139.269 14.0009 138.926 13.8866C138.012 13.658 136.64 13.2009 134.811 13.2009C132.068 13.2009 129.725 14.3438 127.897 15.9439L127.211 14.4009C127.154 14.1724 126.925 13.7723 126.411 13.7723H121.325C120.982 13.8295 120.753 14.0009 120.753 14.4009V40.9741C120.753 41.3741 120.982 41.6027 121.382 41.6027H128.64C129.04 41.6027 129.211 41.3741 129.211 40.9741V24.2301C130.068 22.5729 131.783 21.7157 133.154 21.7157C134.297 21.7157 135.897 22.1729 136.697 22.5158Z" fill="url(#paint15_linear_1076_2932)"/>
<path d="M152.468 27.5447L152.526 21.6014H157.326C157.669 21.6014 157.897 21.3728 157.897 21.0871V14.3438C157.897 14.0009 157.669 13.7723 157.326 13.7723H152.526V5.7718C152.526 5.42893 152.297 5.20034 151.954 5.20034H144.811C144.468 5.20034 144.296 5.42893 144.296 5.7718L144.239 13.7723H141.096C140.753 13.7723 140.525 14.0009 140.525 14.3438V21.0871C140.525 21.3728 140.753 21.6014 141.096 21.6014H144.239V32.8593C144.182 38.2311 147.039 42.117 152.64 42.117C155.554 42.117 157.954 40.917 158.755 40.2883C159.04 40.174 159.097 39.774 158.983 39.374L157.097 33.0879C157.04 32.9164 156.812 32.8021 156.583 32.8021C156.469 32.8021 156.411 32.8021 156.297 32.8593C155.954 32.9736 154.983 33.545 154.297 33.545C152.583 33.545 152.526 32.1735 152.468 27.5447Z" fill="url(#paint16_linear_1076_2932)"/>
<path d="M169.084 14.2866C169.084 14.0009 168.855 13.7723 168.569 13.7723H161.369C160.969 13.7723 160.74 14.0009 160.74 14.4009V41.0312C160.74 41.3741 160.969 41.6027 161.312 41.6027H168.512C168.912 41.6027 169.084 41.3741 169.084 41.0312V14.2866ZM159.769 5.0289C159.769 8.11481 161.883 10.1721 164.912 10.1721C167.998 10.1721 169.998 8.11481 169.998 5.0289C169.998 2.00013 167.998 0 164.912 0C161.883 0 159.769 2.00013 159.769 5.0289Z" fill="url(#paint17_linear_1076_2932)"/>
<path d="M171.775 39.0883C172.804 39.8883 177.547 42.117 183.09 42.117C189.719 42.1742 194.348 38.6311 194.176 32.8593C194.005 27.6589 190.519 25.6017 184.347 24.2873C181.604 23.7158 179.89 23.1444 179.89 22.1157C179.89 21.4871 181.147 20.8585 183.033 20.8585C183.49 20.8585 184.004 20.8585 184.576 20.9728C187.319 21.4871 188.862 22.5158 189.548 22.8015C189.662 22.8586 189.776 22.8586 189.948 22.8586C190.176 22.8586 190.405 22.7443 190.462 22.5729L193.376 17.144C193.548 16.8582 193.434 16.5154 193.205 16.3439C192.291 15.601 188.29 13.2009 183.319 13.2009C176.918 13.1437 171.261 16.1725 171.489 22.2872C171.661 26.4589 174.518 29.0876 179.661 30.5734C183.09 31.6021 185.776 32.1164 185.776 33.3165C185.776 34.0022 184.404 34.5165 182.576 34.5165C179.947 34.5165 177.604 33.545 175.261 32.345C175.147 32.2878 175.032 32.2307 174.918 32.2307C174.689 32.2307 174.518 32.345 174.404 32.5735L171.604 38.2882C171.432 38.6311 171.489 38.8597 171.775 39.0883Z" fill="url(#paint18_linear_1076_2932)"/>
<path d="M204.916 14.2866C204.916 14.0009 204.688 13.7723 204.402 13.7723H197.202C196.802 13.7723 196.573 14.0009 196.573 14.4009V41.0312C196.573 41.3741 196.802 41.6027 197.145 41.6027H204.345C204.745 41.6027 204.916 41.3741 204.916 41.0312V14.2866ZM195.602 5.0289C195.602 8.11481 197.716 10.1721 200.745 10.1721C203.831 10.1721 205.831 8.11481 205.831 5.0289C205.831 2.00013 203.831 0 200.745 0C197.716 0 195.602 2.00013 195.602 5.0289Z" fill="url(#paint19_linear_1076_2932)"/>
<path d="M207.208 41.0312C207.208 41.317 207.493 41.5456 207.836 41.5456H215.037C215.322 41.5456 215.608 41.317 215.608 41.0312V28.059C215.837 23.1444 218.123 21.6014 220.294 21.5443C222.923 21.4871 224.923 23.7158 224.923 27.4875V40.9741C224.923 41.317 225.152 41.6027 225.495 41.6027H232.752C233.095 41.6027 233.324 41.3741 233.324 40.9741V25.5445C233.324 18.0583 229.038 13.0866 222.98 13.0866C219.38 13.0866 216.808 14.3438 215.037 16.5154L214.465 14.3438C214.351 14.0009 214.122 13.7723 213.722 13.7723H207.779C207.436 13.7723 207.208 14.0009 207.208 14.4009V41.0312Z" fill="url(#paint20_linear_1076_2932)"/>
<path d="M249.25 13.1437C240.792 13.1437 235.192 19.087 235.192 27.7161C235.192 36.4024 240.792 42.1742 249.25 42.2885C252.107 42.2885 254.393 41.317 256.107 39.6026V39.7169C256.107 44.0029 253.821 46.803 249.135 46.803C246.049 46.6888 243.021 45.3744 241.821 44.7458C241.706 44.6886 241.592 44.6886 241.478 44.6886C241.306 44.6886 241.078 44.8029 241.021 44.9744L237.992 51.3176C237.763 51.7177 237.877 52.0034 238.22 52.232C239.992 53.3178 243.878 55.1464 249.764 55.2036C258.565 55.2036 264.565 49.2032 264.565 40.174L264.451 14.4009C264.451 14.0009 264.222 13.7723 263.879 13.7723H258.793C258.507 13.8295 258.279 13.8295 258.107 14.3438L257.022 16.9154C255.193 14.5152 252.621 13.1437 249.25 13.1437ZM243.592 27.6589C243.592 23.8873 246.049 21.5443 249.764 21.5443C253.65 21.5443 256.05 23.9444 256.05 27.6589C256.05 31.3735 253.536 33.7736 249.65 33.8308C246.049 33.8308 243.592 31.3735 243.592 27.6589Z" fill="url(#paint21_linear_1076_2932)"/>
</mask>
<g mask="url(#mask0_1076_2932)">
<rect opacity="0.2" x="1.8125" y="16.4583" width="64.5695" height="10.7497" transform="rotate(20.3504 1.8125 16.4583)" fill="white"/>
<rect opacity="0.2" x="76.1016" y="16.4583" width="64.5695" height="10.7497" transform="rotate(20.3504 76.1016 16.4583)" fill="white"/>
<rect opacity="0.2" x="59.9648" y="0.595947" width="55.0463" height="14.612" transform="rotate(120 59.9648 0.595947)" fill="#24114E"/>
<rect opacity="0.2" x="134.258" y="0.595947" width="55.0463" height="14.612" transform="rotate(120 134.258 0.595947)" fill="#24114E"/>
<rect opacity="0.2" x="46.7969" y="0.533691" width="53.259" height="9.1263" transform="rotate(45 46.7969 0.533691)" fill="white"/>
<rect opacity="0.2" x="121.09" y="0.533936" width="53.259" height="9.1263" transform="rotate(45 121.09 0.533936)" fill="white"/>
<rect opacity="0.2" x="188.746" y="15.8401" width="130.775" height="42.8379" transform="rotate(150 188.746 15.8401)" fill="#24114E"/>
<rect opacity="0.2" x="267.758" y="13.1182" width="106.802" height="26.6994" transform="rotate(150 267.758 13.1182)" fill="#24114E"/>
<rect opacity="0.2" x="256.508" y="55.4104" width="44.429" height="8.02036" transform="rotate(-118.219 256.508 55.4104)" fill="#24114E"/>
</g>
<path d="M276.324 31.5194V26.5262H279.819C280.052 26.5262 280.207 26.3714 280.207 26.1779V22.2298C280.207 21.9975 280.052 21.8427 279.819 21.8427H276.324V16.3076C276.324 16.0754 276.168 15.9205 275.935 15.9205H271.702C271.469 15.9205 271.353 16.0754 271.353 16.3076L271.314 21.8427H269.023C268.79 21.8427 268.634 21.9975 268.634 22.2298V26.1779C268.634 26.3714 268.79 26.5262 269.023 26.5262H271.314V34.4224C271.275 38.2931 273.295 40.693 276.673 40.693C278.032 40.693 279.702 40.3059 280.79 39.4543C280.984 39.3382 281.023 39.106 280.906 38.835L279.702 35.1579C279.624 35.0417 279.508 34.9643 279.353 34.9643C279.275 34.9643 279.236 34.9643 279.158 35.003C278.887 35.1579 278.188 35.5449 277.683 35.5449C276.479 35.5449 276.324 34.616 276.324 31.5194Z" fill="#142753"/>
<path d="M285.873 29.4679C286.339 27.5326 287.775 26.2166 290.183 26.2166C292.552 26.2166 293.989 27.5326 294.455 29.4679H285.873ZM285.989 33.0677H299.387C299.62 33.1064 299.775 32.9129 299.775 32.6806C299.814 24.8618 295.931 21.4943 290.183 21.4943C284.436 21.4943 280.591 25.4037 280.591 31.1323C280.591 36.8997 284.475 40.7704 290.338 40.7704C293.523 40.7317 296.125 39.9962 297.833 38.1383C297.989 37.9448 297.95 37.7125 297.795 37.5577L295.154 34.8095C295.076 34.7321 294.999 34.6547 294.882 34.6547C294.766 34.6547 294.649 34.7321 294.494 34.8482C293.717 35.5062 292.397 36.0481 290.649 36.0481C288.125 36.0481 286.572 34.8482 285.989 33.0677Z" fill="#142753"/>
<path d="M317.864 36.9384C317.981 36.7449 317.942 36.5126 317.787 36.3965L314.874 33.6483C314.796 33.5709 314.68 33.5322 314.602 33.5322C314.447 33.5322 314.292 33.6096 314.175 33.7257C313.515 34.5386 312.311 35.7772 309.981 35.7772C307.224 35.7772 305.399 33.9192 305.399 31.1323C305.399 28.3454 307.224 26.4875 309.981 26.4875C311.806 26.4875 313.282 27.3004 314.292 28.7325C314.369 28.8873 314.525 28.9648 314.641 28.9648C314.719 28.9648 314.835 28.9261 314.913 28.8486L318.175 26.2166C318.33 26.1004 318.33 25.8682 318.175 25.6747C316.194 22.6942 313.321 21.4943 309.826 21.4943C305.049 21.5717 300.389 24.7844 300.389 31.1323C300.389 36.861 304.234 40.7704 309.981 40.7704C313.515 40.7704 316.194 39.4156 317.864 36.9384Z" fill="#142753"/>
<path d="M319.718 39.9575C319.718 40.1898 319.874 40.3446 320.107 40.3446H324.378C324.611 40.3446 324.767 40.1898 324.767 39.9575V31.3259C324.922 27.9197 326.631 26.4875 328.495 26.4488C330.475 26.4488 331.951 27.9197 331.951 30.7066V39.9575C331.912 40.1898 332.106 40.3446 332.339 40.3446H336.611C336.844 40.3446 337 40.1898 337 39.9575V29.6615C337 24.5522 334.126 21.3782 330.009 21.3782C327.641 21.3782 325.932 22.2298 324.767 23.6232V12.7853C324.767 12.553 324.611 12.3982 324.34 12.3982H320.107C319.835 12.3982 319.68 12.553 319.68 12.7853L319.718 39.9575Z" fill="#142753"/>
<path d="M274.347 36.9293C274.347 40.7017 271.279 43.7599 267.494 43.7599C263.709 43.7599 260.641 40.7017 260.641 36.9293C260.641 33.1568 263.709 30.0986 267.494 30.0986C271.279 30.0986 274.347 33.1568 274.347 36.9293Z" fill="white"/>
<path d="M270.92 36.9293C270.92 38.8155 269.386 40.3446 267.494 40.3446C265.601 40.3446 264.067 38.8155 264.067 36.9293C264.067 35.0431 265.601 33.514 267.494 33.514C269.386 33.514 270.92 35.0431 270.92 36.9293Z" fill="#142753"/>
<defs>
<linearGradient id="paint0_linear_1076_2932" x1="3.78596" y1="15.8868" x2="264.374" y2="44.4601" gradientUnits="userSpaceOnUse">
<stop stop-color="#0768FF"/>
<stop offset="1" stop-color="#C064FE"/>
</linearGradient>
<linearGradient id="paint1_linear_1076_2932" x1="3.78596" y1="15.8868" x2="264.374" y2="44.4601" gradientUnits="userSpaceOnUse">
<stop stop-color="#0768FF"/>
<stop offset="1" stop-color="#C064FE"/>
</linearGradient>
<linearGradient id="paint2_linear_1076_2932" x1="3.78596" y1="15.8868" x2="264.374" y2="44.4601" gradientUnits="userSpaceOnUse">
<stop stop-color="#0768FF"/>
<stop offset="1" stop-color="#C064FE"/>
</linearGradient>
<linearGradient id="paint3_linear_1076_2932" x1="3.78596" y1="15.8868" x2="264.374" y2="44.4601" gradientUnits="userSpaceOnUse">
<stop stop-color="#0768FF"/>
<stop offset="1" stop-color="#C064FE"/>
</linearGradient>
<linearGradient id="paint4_linear_1076_2932" x1="3.78596" y1="15.8868" x2="264.374" y2="44.4601" gradientUnits="userSpaceOnUse">
<stop stop-color="#0768FF"/>
<stop offset="1" stop-color="#C064FE"/>
</linearGradient>
<linearGradient id="paint5_linear_1076_2932" x1="3.78596" y1="15.8868" x2="264.374" y2="44.4601" gradientUnits="userSpaceOnUse">
<stop stop-color="#0768FF"/>
<stop offset="1" stop-color="#C064FE"/>
</linearGradient>
<linearGradient id="paint6_linear_1076_2932" x1="3.78596" y1="15.8868" x2="264.374" y2="44.4601" gradientUnits="userSpaceOnUse">
<stop stop-color="#0768FF"/>
<stop offset="1" stop-color="#C064FE"/>
</linearGradient>
<linearGradient id="paint7_linear_1076_2932" x1="3.78596" y1="15.8868" x2="264.374" y2="44.4601" gradientUnits="userSpaceOnUse">
<stop stop-color="#0768FF"/>
<stop offset="1" stop-color="#C064FE"/>
</linearGradient>
<linearGradient id="paint8_linear_1076_2932" x1="3.78596" y1="15.8868" x2="264.374" y2="44.4601" gradientUnits="userSpaceOnUse">
<stop stop-color="#0768FF"/>
<stop offset="1" stop-color="#C064FE"/>
</linearGradient>
<linearGradient id="paint9_linear_1076_2932" x1="3.78596" y1="15.8868" x2="264.374" y2="44.4601" gradientUnits="userSpaceOnUse">
<stop stop-color="#0768FF"/>
<stop offset="1" stop-color="#C064FE"/>
</linearGradient>
<linearGradient id="paint10_linear_1076_2932" x1="3.78596" y1="15.8868" x2="264.374" y2="44.4601" gradientUnits="userSpaceOnUse">
<stop stop-color="#0768FF"/>
<stop offset="1" stop-color="#C064FE"/>
</linearGradient>
<linearGradient id="paint11_linear_1076_2932" x1="3.78596" y1="15.8868" x2="264.374" y2="44.4601" gradientUnits="userSpaceOnUse">
<stop stop-color="#5D1BEF"/>
<stop offset="1" stop-color="#3089F7"/>
</linearGradient>
<linearGradient id="paint12_linear_1076_2932" x1="3.78596" y1="15.8868" x2="264.374" y2="44.4601" gradientUnits="userSpaceOnUse">
<stop stop-color="#5D1BEF"/>
<stop offset="1" stop-color="#3089F7"/>
</linearGradient>
<linearGradient id="paint13_linear_1076_2932" x1="3.78596" y1="15.8868" x2="264.374" y2="44.4601" gradientUnits="userSpaceOnUse">
<stop stop-color="#5D1BEF"/>
<stop offset="1" stop-color="#3089F7"/>
</linearGradient>
<linearGradient id="paint14_linear_1076_2932" x1="3.78596" y1="15.8868" x2="264.374" y2="44.4601" gradientUnits="userSpaceOnUse">
<stop stop-color="#5D1BEF"/>
<stop offset="1" stop-color="#3089F7"/>
</linearGradient>
<linearGradient id="paint15_linear_1076_2932" x1="3.78596" y1="15.8868" x2="264.374" y2="44.4601" gradientUnits="userSpaceOnUse">
<stop stop-color="#5D1BEF"/>
<stop offset="1" stop-color="#3089F7"/>
</linearGradient>
<linearGradient id="paint16_linear_1076_2932" x1="3.78596" y1="15.8868" x2="264.374" y2="44.4601" gradientUnits="userSpaceOnUse">
<stop stop-color="#5D1BEF"/>
<stop offset="1" stop-color="#3089F7"/>
</linearGradient>
<linearGradient id="paint17_linear_1076_2932" x1="3.78596" y1="15.8868" x2="264.374" y2="44.4601" gradientUnits="userSpaceOnUse">
<stop stop-color="#5D1BEF"/>
<stop offset="1" stop-color="#3089F7"/>
</linearGradient>
<linearGradient id="paint18_linear_1076_2932" x1="3.78596" y1="15.8868" x2="264.374" y2="44.4601" gradientUnits="userSpaceOnUse">
<stop stop-color="#5D1BEF"/>
<stop offset="1" stop-color="#3089F7"/>
</linearGradient>
<linearGradient id="paint19_linear_1076_2932" x1="3.78596" y1="15.8868" x2="264.374" y2="44.4601" gradientUnits="userSpaceOnUse">
<stop stop-color="#5D1BEF"/>
<stop offset="1" stop-color="#3089F7"/>
</linearGradient>
<linearGradient id="paint20_linear_1076_2932" x1="3.78596" y1="15.8868" x2="264.374" y2="44.4601" gradientUnits="userSpaceOnUse">
<stop stop-color="#5D1BEF"/>
<stop offset="1" stop-color="#3089F7"/>
</linearGradient>
<linearGradient id="paint21_linear_1076_2932" x1="3.78596" y1="15.8868" x2="264.374" y2="44.4601" gradientUnits="userSpaceOnUse">
<stop stop-color="#5D1BEF"/>
<stop offset="1" stop-color="#3089F7"/>
</linearGradient>
</defs>
</svg>
