<svg width="312" height="51" viewBox="0 0 312 51" fill="none" xmlns="http://www.w3.org/2000/svg">
<path d="M19.7981 15.4162C18.1615 13.4099 15.8385 12.3012 12.882 12.3012C5.17391 12.354 0 17.6863 0 25.6584C0 33.5776 5.17391 39.1211 12.882 39.0155C15.8385 39.0155 18.1615 37.854 19.7981 35.8478L20.6429 37.9068C20.7484 38.2236 20.9068 38.4348 21.2236 38.4348H26.8199C27.1894 38.4348 27.4006 38.1708 27.3478 37.9068V13.2516C27.3478 12.9348 27.1366 12.7236 26.8727 12.7236H21.2764C20.9596 12.7236 20.8012 12.9348 20.6957 13.2516L19.7981 15.4162ZM7.70807 25.6584C7.70807 22.2795 9.92547 20.0093 13.3043 20.0093C16.6832 20.0093 19.0062 22.2795 19.0062 25.6584C19.0062 29.0901 16.736 31.3075 13.3043 31.3075C10.0311 31.3075 7.70807 28.9845 7.70807 25.6584Z" fill="url(#paint0_linear_1076_2887)"/>
<path d="M41.0626 39.0155C44.0719 39.0155 46.3949 37.854 48.0315 35.7422L48.8762 37.9068C48.9818 38.2236 49.193 38.4348 49.5098 38.4348H54.3669C54.6837 38.4348 54.9477 38.2764 54.9477 37.9068V0.422386C54.9477 0.422386 51.3828 0.422386 51.0132 0.422386H47.8455C47.1868 0.399979 47.1868 0.422386 47.1868 0.791925V14.6242C45.6029 13.146 43.5967 12.3012 41.0626 12.3012C33.3545 12.3012 28.1806 17.6863 28.1806 25.6584C28.1806 33.5776 33.3545 39.0155 41.0626 39.0155ZM47.134 25.6584C47.134 29.1957 44.811 31.3075 41.4849 31.3075C38.2116 31.3075 35.8887 28.9845 35.8887 25.6584C35.8887 22.2795 38.106 19.9565 41.4849 19.9565C44.9166 19.9565 47.1868 22.2267 47.134 25.6584Z" fill="url(#paint1_linear_1076_2887)"/>
<path d="M83.9325 13.4099C84.0909 13.0404 83.9325 12.7236 83.5102 12.7236H76.3829C76.1189 12.7236 75.9077 12.882 75.8021 13.146L70.2586 29.1957L64.7152 13.146C64.6096 12.882 64.3456 12.7236 64.1344 12.7236H57.0599C56.5847 12.7236 56.4263 13.0404 56.5847 13.4099L65.7711 37.9596C65.8766 38.2764 66.1934 38.4348 66.4574 38.4348H74.0599C74.3766 38.4348 74.6934 38.2764 74.799 37.9596L83.9325 13.4099Z" fill="url(#paint2_linear_1076_2887)"/>
<path d="M91.2991 23.177C91.9326 21.0124 93.5693 19.4814 96.473 19.4814C99.3239 19.4814 100.908 21.0124 101.541 23.177H91.2991ZM91.5103 28.6149H109.144C109.513 28.6149 109.725 28.4037 109.725 28.0342C109.725 16.7888 104.287 12.3012 96.473 12.3012C88.501 12.3012 83.1687 17.6863 83.1687 25.6584C83.1687 33.6832 88.5538 39.0155 96.5786 39.0155C100.961 38.9627 104.551 38.0124 106.926 35.4783C107.138 35.2143 107.085 34.8975 106.874 34.6863L102.808 30.3571C102.703 30.2516 102.597 30.1988 102.439 30.1988C102.28 30.1988 102.122 30.2516 101.911 30.4099C101.013 31.0963 99.3239 31.8354 97.1066 31.8354C94.0972 31.8354 92.355 30.5155 91.5103 28.6149Z" fill="url(#paint3_linear_1076_2887)"/>
<path d="M126.288 20.8012C126.394 20.854 126.499 20.854 126.552 20.854C126.816 20.854 127.027 20.6957 127.08 20.4845L128.717 13.5155C128.822 13.1988 128.664 12.9348 128.347 12.8292C127.502 12.618 126.235 12.1957 124.546 12.1957C122.012 12.1957 119.847 13.2516 118.158 14.7298L117.524 13.3043C117.471 13.0932 117.26 12.7236 116.785 12.7236H112.086C111.77 12.7764 111.558 12.9348 111.558 13.3043V37.854C111.558 38.2236 111.77 38.4348 112.139 38.4348H118.844C119.214 38.4348 119.372 38.2236 119.372 37.854V22.3851C120.164 20.854 121.748 20.0621 123.015 20.0621C124.071 20.0621 125.549 20.4845 126.288 20.8012Z" fill="url(#paint4_linear_1076_2887)"/>
<path d="M140.858 25.4472L140.911 19.9565H145.346C145.663 19.9565 145.874 19.7453 145.874 19.4814V13.2516C145.874 12.9348 145.663 12.7236 145.346 12.7236H140.911V5.3323C140.911 5.01553 140.7 4.80435 140.383 4.80435H133.784C133.467 4.80435 133.309 5.01553 133.309 5.3323L133.256 12.7236H130.352C130.035 12.7236 129.824 12.9348 129.824 13.2516V19.4814C129.824 19.7453 130.035 19.9565 130.352 19.9565H133.256V30.3571C133.203 35.3199 135.843 38.9099 141.017 38.9099C143.709 38.9099 145.927 37.8012 146.666 37.2205C146.93 37.1149 146.983 36.7453 146.877 36.3758L145.135 30.5683C145.082 30.4099 144.871 30.3043 144.66 30.3043C144.554 30.3043 144.501 30.3043 144.396 30.3571C144.079 30.4627 143.181 30.9907 142.548 30.9907C140.964 30.9907 140.911 29.7236 140.858 25.4472Z" fill="url(#paint5_linear_1076_2887)"/>
<path d="M156.209 13.1988C156.209 12.9348 155.997 12.7236 155.733 12.7236H149.081C148.712 12.7236 148.5 12.9348 148.5 13.3043V37.9068C148.5 38.2236 148.712 38.4348 149.028 38.4348H155.681C156.05 38.4348 156.209 38.2236 156.209 37.9068V13.1988ZM147.603 4.64596C147.603 7.4969 149.556 9.39752 152.354 9.39752C155.205 9.39752 157.053 7.4969 157.053 4.64596C157.053 1.84783 155.205 0 152.354 0C149.556 0 147.603 1.84783 147.603 4.64596Z" fill="url(#paint6_linear_1076_2887)"/>
<path d="M158.695 36.1118C159.645 36.8509 164.027 38.9099 169.148 38.9099C175.272 38.9627 179.549 35.6894 179.39 30.3571C179.232 25.5528 176.012 23.6522 170.31 22.4379C167.776 21.9099 166.192 21.382 166.192 20.4317C166.192 19.8509 167.353 19.2702 169.095 19.2702C169.518 19.2702 169.993 19.2702 170.521 19.3758C173.055 19.8509 174.481 20.8012 175.114 21.0652C175.22 21.118 175.325 21.118 175.484 21.118C175.695 21.118 175.906 21.0124 175.959 20.854L178.651 15.8385C178.81 15.5745 178.704 15.2578 178.493 15.0994C177.648 14.413 173.953 12.1957 169.359 12.1957C163.446 12.1429 158.22 14.941 158.431 20.5901C158.589 24.4441 161.229 26.8727 165.981 28.2453C169.148 29.1957 171.63 29.6708 171.63 30.7795C171.63 31.413 170.363 31.8882 168.673 31.8882C166.245 31.8882 164.08 30.9907 161.915 29.882C161.81 29.8292 161.704 29.7764 161.599 29.7764C161.387 29.7764 161.229 29.882 161.123 30.0932L158.536 35.3727C158.378 35.6894 158.431 35.9006 158.695 36.1118Z" fill="url(#paint7_linear_1076_2887)"/>
<path d="M189.313 13.1988C189.313 12.9348 189.101 12.7236 188.838 12.7236H182.185C181.816 12.7236 181.605 12.9348 181.605 13.3043V37.9068C181.605 38.2236 181.816 38.4348 182.133 38.4348H188.785C189.154 38.4348 189.313 38.2236 189.313 37.9068V13.1988ZM180.707 4.64596C180.707 7.4969 182.66 9.39752 185.459 9.39752C188.31 9.39752 190.157 7.4969 190.157 4.64596C190.157 1.84783 188.31 0 185.459 0C182.66 0 180.707 1.84783 180.707 4.64596Z" fill="url(#paint8_linear_1076_2887)"/>
<path d="M191.429 37.9068C191.429 38.1708 191.693 38.382 192.01 38.382H198.662C198.926 38.382 199.19 38.1708 199.19 37.9068V25.9224C199.401 21.382 201.513 19.9565 203.519 19.9037C205.948 19.8509 207.796 21.9099 207.796 25.3944V37.854C207.796 38.1708 208.007 38.4348 208.324 38.4348H215.029C215.346 38.4348 215.557 38.2236 215.557 37.854V23.5994C215.557 16.6832 211.597 12.0901 206.001 12.0901C202.675 12.0901 200.299 13.2516 198.662 15.2578L198.134 13.2516C198.029 12.9348 197.818 12.7236 197.448 12.7236H191.957C191.641 12.7236 191.429 12.9348 191.429 13.3043V37.9068Z" fill="url(#paint9_linear_1076_2887)"/>
<path d="M230.27 12.1429C222.456 12.1429 217.282 17.6335 217.282 25.6056C217.282 33.6304 222.456 38.9627 230.27 39.0683C232.91 39.0683 235.022 38.1708 236.605 36.587V36.6926C236.605 40.6522 234.494 43.2391 230.164 43.2391C227.314 43.1335 224.515 41.9193 223.407 41.3385C223.301 41.2857 223.196 41.2857 223.09 41.2857C222.932 41.2857 222.72 41.3913 222.668 41.5497L219.869 47.4099C219.658 47.7795 219.764 48.0435 220.081 48.2547C221.717 49.2578 225.307 50.9472 230.745 51C238.876 51 244.419 45.4565 244.419 37.1149L244.314 13.3043C244.314 12.9348 244.102 12.7236 243.786 12.7236H239.087C238.823 12.7764 238.612 12.7764 238.453 13.2516L237.45 15.6273C235.761 13.4099 233.385 12.1429 230.27 12.1429ZM225.043 25.5528C225.043 22.0683 227.314 19.9037 230.745 19.9037C234.335 19.9037 236.553 22.1211 236.553 25.5528C236.553 28.9845 234.23 31.2019 230.64 31.2547C227.314 31.2547 225.043 28.9845 225.043 25.5528Z" fill="url(#paint10_linear_1076_2887)"/>
<mask id="mask0_1076_2887" style="mask-type:alpha" maskUnits="userSpaceOnUse" x="0" y="0" width="245" height="51">
<path d="M19.7981 15.4162C18.1615 13.4099 15.8385 12.3012 12.882 12.3012C5.17391 12.354 0 17.6863 0 25.6584C0 33.5776 5.17391 39.1211 12.882 39.0155C15.8385 39.0155 18.1615 37.854 19.7981 35.8478L20.6429 37.9068C20.7484 38.2236 20.9068 38.4348 21.2236 38.4348H26.8199C27.1894 38.4348 27.4006 38.1708 27.3478 37.9068V13.2516C27.3478 12.9348 27.1366 12.7236 26.8727 12.7236H21.2764C20.9596 12.7236 20.8012 12.9348 20.6957 13.2516L19.7981 15.4162ZM7.70807 25.6584C7.70807 22.2795 9.92547 20.0093 13.3043 20.0093C16.6832 20.0093 19.0062 22.2795 19.0062 25.6584C19.0062 29.0901 16.736 31.3075 13.3043 31.3075C10.0311 31.3075 7.70807 28.9845 7.70807 25.6584Z" fill="url(#paint11_linear_1076_2887)"/>
<path d="M41.0626 39.0155C44.0719 39.0155 46.3949 37.854 48.0315 35.7422L48.8762 37.9068C48.9818 38.2236 49.193 38.4348 49.5098 38.4348H54.3669C54.6837 38.4348 54.9477 38.2764 54.9477 37.9068V0.422386C54.9477 0.422386 51.3828 0.422386 51.0132 0.422386H47.8455C47.1868 0.399979 47.1868 0.422386 47.1868 0.791925V14.6242C45.6029 13.146 43.5967 12.3012 41.0626 12.3012C33.3545 12.3012 28.1806 17.6863 28.1806 25.6584C28.1806 33.5776 33.3545 39.0155 41.0626 39.0155ZM47.134 25.6584C47.134 29.1957 44.811 31.3075 41.4849 31.3075C38.2116 31.3075 35.8887 28.9845 35.8887 25.6584C35.8887 22.2795 38.106 19.9565 41.4849 19.9565C44.9166 19.9565 47.1868 22.2267 47.134 25.6584Z" fill="url(#paint12_linear_1076_2887)"/>
<path d="M83.9325 13.4099C84.0909 13.0404 83.9325 12.7236 83.5102 12.7236H76.3829C76.1189 12.7236 75.9077 12.882 75.8021 13.146L70.2586 29.1957L64.7152 13.146C64.6096 12.882 64.3456 12.7236 64.1344 12.7236H57.0599C56.5847 12.7236 56.4263 13.0404 56.5847 13.4099L65.7711 37.9596C65.8766 38.2764 66.1934 38.4348 66.4574 38.4348H74.0599C74.3766 38.4348 74.6934 38.2764 74.799 37.9596L83.9325 13.4099Z" fill="url(#paint13_linear_1076_2887)"/>
<path d="M91.2991 23.177C91.9326 21.0124 93.5693 19.4814 96.473 19.4814C99.3239 19.4814 100.908 21.0124 101.541 23.177H91.2991ZM91.5103 28.6149H109.144C109.513 28.6149 109.725 28.4037 109.725 28.0342C109.725 16.7888 104.287 12.3012 96.473 12.3012C88.501 12.3012 83.1687 17.6863 83.1687 25.6584C83.1687 33.6832 88.5538 39.0155 96.5786 39.0155C100.961 38.9627 104.551 38.0124 106.926 35.4783C107.138 35.2143 107.085 34.8975 106.874 34.6863L102.808 30.3571C102.703 30.2516 102.597 30.1988 102.439 30.1988C102.28 30.1988 102.122 30.2516 101.911 30.4099C101.013 31.0963 99.3239 31.8354 97.1066 31.8354C94.0972 31.8354 92.355 30.5155 91.5103 28.6149Z" fill="url(#paint14_linear_1076_2887)"/>
<path d="M126.288 20.8012C126.394 20.854 126.499 20.854 126.552 20.854C126.816 20.854 127.027 20.6957 127.08 20.4845L128.717 13.5155C128.822 13.1988 128.664 12.9348 128.347 12.8292C127.502 12.618 126.235 12.1957 124.546 12.1957C122.012 12.1957 119.847 13.2516 118.158 14.7298L117.524 13.3043C117.471 13.0932 117.26 12.7236 116.785 12.7236H112.086C111.77 12.7764 111.558 12.9348 111.558 13.3043V37.854C111.558 38.2236 111.77 38.4348 112.139 38.4348H118.844C119.214 38.4348 119.372 38.2236 119.372 37.854V22.3851C120.164 20.854 121.748 20.0621 123.015 20.0621C124.071 20.0621 125.549 20.4845 126.288 20.8012Z" fill="url(#paint15_linear_1076_2887)"/>
<path d="M140.858 25.4472L140.911 19.9565H145.346C145.663 19.9565 145.874 19.7453 145.874 19.4814V13.2516C145.874 12.9348 145.663 12.7236 145.346 12.7236H140.911V5.3323C140.911 5.01553 140.7 4.80435 140.383 4.80435H133.784C133.467 4.80435 133.309 5.01553 133.309 5.3323L133.256 12.7236H130.352C130.035 12.7236 129.824 12.9348 129.824 13.2516V19.4814C129.824 19.7453 130.035 19.9565 130.352 19.9565H133.256V30.3571C133.203 35.3199 135.843 38.9099 141.017 38.9099C143.709 38.9099 145.927 37.8012 146.666 37.2205C146.93 37.1149 146.983 36.7453 146.877 36.3758L145.135 30.5683C145.082 30.4099 144.871 30.3043 144.66 30.3043C144.554 30.3043 144.501 30.3043 144.396 30.3571C144.079 30.4627 143.181 30.9907 142.548 30.9907C140.964 30.9907 140.911 29.7236 140.858 25.4472Z" fill="url(#paint16_linear_1076_2887)"/>
<path d="M156.209 13.1988C156.209 12.9348 155.997 12.7236 155.733 12.7236H149.081C148.712 12.7236 148.5 12.9348 148.5 13.3043V37.9068C148.5 38.2236 148.712 38.4348 149.028 38.4348H155.681C156.05 38.4348 156.209 38.2236 156.209 37.9068V13.1988ZM147.603 4.64596C147.603 7.4969 149.556 9.39752 152.354 9.39752C155.205 9.39752 157.053 7.4969 157.053 4.64596C157.053 1.84783 155.205 0 152.354 0C149.556 0 147.603 1.84783 147.603 4.64596Z" fill="url(#paint17_linear_1076_2887)"/>
<path d="M158.695 36.1118C159.645 36.8509 164.027 38.9099 169.148 38.9099C175.272 38.9627 179.549 35.6894 179.39 30.3571C179.232 25.5528 176.012 23.6522 170.31 22.4379C167.776 21.9099 166.192 21.382 166.192 20.4317C166.192 19.8509 167.353 19.2702 169.095 19.2702C169.518 19.2702 169.993 19.2702 170.521 19.3758C173.055 19.8509 174.481 20.8012 175.114 21.0652C175.22 21.118 175.325 21.118 175.484 21.118C175.695 21.118 175.906 21.0124 175.959 20.854L178.651 15.8385C178.81 15.5745 178.704 15.2578 178.493 15.0994C177.648 14.413 173.953 12.1957 169.359 12.1957C163.446 12.1429 158.22 14.941 158.431 20.5901C158.589 24.4441 161.229 26.8727 165.981 28.2453C169.148 29.1957 171.63 29.6708 171.63 30.7795C171.63 31.413 170.363 31.8882 168.673 31.8882C166.245 31.8882 164.08 30.9907 161.915 29.882C161.81 29.8292 161.704 29.7764 161.599 29.7764C161.387 29.7764 161.229 29.882 161.123 30.0932L158.536 35.3727C158.378 35.6894 158.431 35.9006 158.695 36.1118Z" fill="url(#paint18_linear_1076_2887)"/>
<path d="M189.313 13.1988C189.313 12.9348 189.101 12.7236 188.838 12.7236H182.185C181.816 12.7236 181.605 12.9348 181.605 13.3043V37.9068C181.605 38.2236 181.816 38.4348 182.133 38.4348H188.785C189.154 38.4348 189.313 38.2236 189.313 37.9068V13.1988ZM180.707 4.64596C180.707 7.4969 182.66 9.39752 185.459 9.39752C188.31 9.39752 190.157 7.4969 190.157 4.64596C190.157 1.84783 188.31 0 185.459 0C182.66 0 180.707 1.84783 180.707 4.64596Z" fill="url(#paint19_linear_1076_2887)"/>
<path d="M191.429 37.9068C191.429 38.1708 191.693 38.382 192.01 38.382H198.662C198.926 38.382 199.19 38.1708 199.19 37.9068V25.9224C199.401 21.382 201.513 19.9565 203.519 19.9037C205.948 19.8509 207.796 21.9099 207.796 25.3944V37.854C207.796 38.1708 208.007 38.4348 208.324 38.4348H215.029C215.346 38.4348 215.557 38.2236 215.557 37.854V23.5994C215.557 16.6832 211.597 12.0901 206.001 12.0901C202.675 12.0901 200.299 13.2516 198.662 15.2578L198.134 13.2516C198.029 12.9348 197.818 12.7236 197.448 12.7236H191.957C191.641 12.7236 191.429 12.9348 191.429 13.3043V37.9068Z" fill="url(#paint20_linear_1076_2887)"/>
<path d="M230.27 12.1429C222.456 12.1429 217.282 17.6335 217.282 25.6056C217.282 33.6304 222.456 38.9627 230.27 39.0683C232.91 39.0683 235.022 38.1708 236.605 36.587V36.6926C236.605 40.6522 234.494 43.2391 230.164 43.2391C227.314 43.1335 224.515 41.9193 223.407 41.3385C223.301 41.2857 223.196 41.2857 223.09 41.2857C222.932 41.2857 222.72 41.3913 222.668 41.5497L219.869 47.4099C219.658 47.7795 219.764 48.0435 220.081 48.2547C221.717 49.2578 225.307 50.9472 230.745 51C238.876 51 244.419 45.4565 244.419 37.1149L244.314 13.3043C244.314 12.9348 244.102 12.7236 243.786 12.7236H239.087C238.823 12.7764 238.612 12.7764 238.453 13.2516L237.45 15.6273C235.761 13.4099 233.385 12.1429 230.27 12.1429ZM225.043 25.5528C225.043 22.0683 227.314 19.9037 230.745 19.9037C234.335 19.9037 236.553 22.1211 236.553 25.5528C236.553 28.9845 234.23 31.2019 230.64 31.2547C227.314 31.2547 225.043 28.9845 225.043 25.5528Z" fill="url(#paint21_linear_1076_2887)"/>
</mask>
<g mask="url(#mask0_1076_2887)">
<rect opacity="0.2" x="1.67188" y="15.205" width="59.6527" height="9.93117" transform="rotate(20.3504 1.67188 15.205)" fill="black"/>
<rect opacity="0.2" x="70.3086" y="15.205" width="59.6527" height="9.93117" transform="rotate(20.3504 70.3086 15.205)" fill="black"/>
<rect opacity="0.2" x="55.3984" y="0.550659" width="50.8547" height="13.4994" transform="rotate(120 55.3984 0.550659)" fill="#24114E"/>
<rect opacity="0.2" x="124.035" y="0.550659" width="50.8547" height="13.4994" transform="rotate(120 124.035 0.550659)" fill="#24114E"/>
<rect opacity="0.2" x="43.2344" y="0.493164" width="49.2035" height="8.43135" transform="rotate(45 43.2344 0.493164)" fill="black"/>
<rect opacity="0.2" x="111.871" y="0.493164" width="49.2035" height="8.43135" transform="rotate(45 111.871 0.493164)" fill="black"/>
<rect opacity="0.2" x="174.375" y="14.6339" width="120.817" height="39.5759" transform="rotate(150 174.375 14.6339)" fill="#24114E"/>
<rect opacity="0.2" x="247.367" y="12.1191" width="98.6697" height="24.6663" transform="rotate(150 247.367 12.1191)" fill="#24114E"/>
<rect opacity="0.2" x="236.977" y="51.1912" width="41.0459" height="7.40963" transform="rotate(-118.219 236.977 51.1912)" fill="#24114E"/>
</g>
<path d="M255.282 29.1193V24.5063H258.511C258.726 24.5063 258.869 24.3633 258.869 24.1845V20.537C258.869 20.3225 258.726 20.1794 258.511 20.1794H255.282V15.0658C255.282 14.8513 255.138 14.7082 254.923 14.7082H251.012C250.797 14.7082 250.689 14.8513 250.689 15.0658L250.654 20.1794H248.537C248.322 20.1794 248.178 20.3225 248.178 20.537V24.1845C248.178 24.3633 248.322 24.5063 248.537 24.5063H250.654V31.8013C250.618 35.3772 252.483 37.5943 255.605 37.5943C256.86 37.5943 258.403 37.2367 259.408 36.45C259.587 36.3427 259.623 36.1282 259.515 35.8778L258.403 32.4807C258.331 32.3734 258.224 32.3019 258.08 32.3019C258.008 32.3019 257.972 32.3019 257.901 32.3377C257.65 32.4807 257.004 32.8383 256.537 32.8383C255.425 32.8383 255.282 31.9801 255.282 29.1193Z" fill="white"/>
<path d="M264.104 27.224C264.534 25.4361 265.862 24.2202 268.086 24.2202C270.274 24.2202 271.602 25.4361 272.032 27.224H264.104ZM264.211 30.5497H276.589C276.804 30.5854 276.948 30.4066 276.948 30.1921C276.983 22.9687 273.396 19.8576 268.086 19.8576C262.776 19.8576 259.224 23.4693 259.224 28.7617C259.224 34.0899 262.812 37.6658 268.229 37.6658C271.171 37.6301 273.575 36.9506 275.154 35.2342C275.297 35.0554 275.261 34.8408 275.118 34.6978L272.678 32.1589C272.606 32.0873 272.535 32.0158 272.427 32.0158C272.319 32.0158 272.212 32.0873 272.068 32.1946C271.351 32.8025 270.131 33.3032 268.516 33.3032C266.184 33.3032 264.749 32.1946 264.211 30.5497Z" fill="white"/>
<path d="M293.659 34.1256C293.767 33.9468 293.731 33.7323 293.588 33.625L290.897 31.0861C290.825 31.0146 290.717 30.9788 290.646 30.9788C290.502 30.9788 290.359 31.0503 290.251 31.1576C289.641 31.9085 288.529 33.0528 286.376 33.0528C283.829 33.0528 282.143 31.3364 282.143 28.7617C282.143 26.187 283.829 24.4706 286.376 24.4706C288.062 24.4706 289.426 25.2215 290.359 26.5446C290.43 26.6877 290.574 26.7592 290.681 26.7592C290.753 26.7592 290.861 26.7234 290.933 26.6519L293.946 24.2202C294.09 24.113 294.09 23.8984 293.946 23.7196C292.117 20.9661 289.462 19.8576 286.233 19.8576C281.82 19.9291 277.515 22.8971 277.515 28.7617C277.515 34.0541 281.066 37.6658 286.376 37.6658C289.641 37.6658 292.117 36.4142 293.659 34.1256Z" fill="white"/>
<path d="M295.372 36.9149C295.372 37.1294 295.516 37.2725 295.731 37.2725H299.677C299.893 37.2725 300.036 37.1294 300.036 36.9149V28.9405C300.18 25.7937 301.758 24.4706 303.48 24.4348C305.31 24.4348 306.673 25.7937 306.673 28.3683V36.9149C306.638 37.1294 306.817 37.2725 307.032 37.2725H310.979C311.194 37.2725 311.337 37.1294 311.337 36.9149V27.4028C311.337 22.6826 308.683 19.7503 304.88 19.7503C302.691 19.7503 301.112 20.537 300.036 21.8244V11.8117C300.036 11.5971 299.893 11.4541 299.641 11.4541H295.731C295.48 11.4541 295.336 11.5971 295.336 11.8117L295.372 36.9149Z" fill="white"/>
<path d="M253.455 34.1172C253.455 37.6024 250.621 40.4277 247.124 40.4277C243.628 40.4277 240.793 37.6024 240.793 34.1172C240.793 30.632 243.628 27.8067 247.124 27.8067C250.621 27.8067 253.455 30.632 253.455 34.1172Z" fill="black"/>
<path d="M250.29 34.1172C250.29 35.8598 248.873 37.2725 247.124 37.2725C245.376 37.2725 243.959 35.8598 243.959 34.1172C243.959 32.3746 245.376 30.962 247.124 30.962C248.873 30.962 250.29 32.3746 250.29 34.1172Z" fill="white"/>
<defs>
<linearGradient id="paint0_linear_1076_2887" x1="3.49767" y1="14.6771" x2="244.243" y2="41.0746" gradientUnits="userSpaceOnUse">
<stop stop-color="#5D1BEF"/>
<stop offset="1" stop-color="#3089F7"/>
</linearGradient>
<linearGradient id="paint1_linear_1076_2887" x1="3.49767" y1="14.6771" x2="244.243" y2="41.0746" gradientUnits="userSpaceOnUse">
<stop stop-color="#5D1BEF"/>
<stop offset="1" stop-color="#3089F7"/>
</linearGradient>
<linearGradient id="paint2_linear_1076_2887" x1="3.49767" y1="14.6771" x2="244.243" y2="41.0746" gradientUnits="userSpaceOnUse">
<stop stop-color="#5D1BEF"/>
<stop offset="1" stop-color="#3089F7"/>
</linearGradient>
<linearGradient id="paint3_linear_1076_2887" x1="3.49767" y1="14.6771" x2="244.243" y2="41.0746" gradientUnits="userSpaceOnUse">
<stop stop-color="#5D1BEF"/>
<stop offset="1" stop-color="#3089F7"/>
</linearGradient>
<linearGradient id="paint4_linear_1076_2887" x1="3.49767" y1="14.6771" x2="244.243" y2="41.0746" gradientUnits="userSpaceOnUse">
<stop stop-color="#5D1BEF"/>
<stop offset="1" stop-color="#3089F7"/>
</linearGradient>
<linearGradient id="paint5_linear_1076_2887" x1="3.49767" y1="14.6771" x2="244.243" y2="41.0746" gradientUnits="userSpaceOnUse">
<stop stop-color="#5D1BEF"/>
<stop offset="1" stop-color="#3089F7"/>
</linearGradient>
<linearGradient id="paint6_linear_1076_2887" x1="3.49767" y1="14.6771" x2="244.243" y2="41.0746" gradientUnits="userSpaceOnUse">
<stop stop-color="#5D1BEF"/>
<stop offset="1" stop-color="#3089F7"/>
</linearGradient>
<linearGradient id="paint7_linear_1076_2887" x1="3.49767" y1="14.6771" x2="244.243" y2="41.0746" gradientUnits="userSpaceOnUse">
<stop stop-color="#5D1BEF"/>
<stop offset="1" stop-color="#3089F7"/>
</linearGradient>
<linearGradient id="paint8_linear_1076_2887" x1="3.49767" y1="14.6771" x2="244.243" y2="41.0746" gradientUnits="userSpaceOnUse">
<stop stop-color="#5D1BEF"/>
<stop offset="1" stop-color="#3089F7"/>
</linearGradient>
<linearGradient id="paint9_linear_1076_2887" x1="3.49767" y1="14.6771" x2="244.243" y2="41.0746" gradientUnits="userSpaceOnUse">
<stop stop-color="#5D1BEF"/>
<stop offset="1" stop-color="#3089F7"/>
</linearGradient>
<linearGradient id="paint10_linear_1076_2887" x1="3.49767" y1="14.6771" x2="244.243" y2="41.0746" gradientUnits="userSpaceOnUse">
<stop stop-color="#5D1BEF"/>
<stop offset="1" stop-color="#3089F7"/>
</linearGradient>
<linearGradient id="paint11_linear_1076_2887" x1="3.49767" y1="14.6771" x2="244.243" y2="41.0746" gradientUnits="userSpaceOnUse">
<stop stop-color="#5D1BEF"/>
<stop offset="1" stop-color="#3089F7"/>
</linearGradient>
<linearGradient id="paint12_linear_1076_2887" x1="3.49767" y1="14.6771" x2="244.243" y2="41.0746" gradientUnits="userSpaceOnUse">
<stop stop-color="#5D1BEF"/>
<stop offset="1" stop-color="#3089F7"/>
</linearGradient>
<linearGradient id="paint13_linear_1076_2887" x1="3.49767" y1="14.6771" x2="244.243" y2="41.0746" gradientUnits="userSpaceOnUse">
<stop stop-color="#5D1BEF"/>
<stop offset="1" stop-color="#3089F7"/>
</linearGradient>
<linearGradient id="paint14_linear_1076_2887" x1="3.49767" y1="14.6771" x2="244.243" y2="41.0746" gradientUnits="userSpaceOnUse">
<stop stop-color="#5D1BEF"/>
<stop offset="1" stop-color="#3089F7"/>
</linearGradient>
<linearGradient id="paint15_linear_1076_2887" x1="3.49767" y1="14.6771" x2="244.243" y2="41.0746" gradientUnits="userSpaceOnUse">
<stop stop-color="#5D1BEF"/>
<stop offset="1" stop-color="#3089F7"/>
</linearGradient>
<linearGradient id="paint16_linear_1076_2887" x1="3.49767" y1="14.6771" x2="244.243" y2="41.0746" gradientUnits="userSpaceOnUse">
<stop stop-color="#5D1BEF"/>
<stop offset="1" stop-color="#3089F7"/>
</linearGradient>
<linearGradient id="paint17_linear_1076_2887" x1="3.49767" y1="14.6771" x2="244.243" y2="41.0746" gradientUnits="userSpaceOnUse">
<stop stop-color="#5D1BEF"/>
<stop offset="1" stop-color="#3089F7"/>
</linearGradient>
<linearGradient id="paint18_linear_1076_2887" x1="3.49767" y1="14.6771" x2="244.243" y2="41.0746" gradientUnits="userSpaceOnUse">
<stop stop-color="#5D1BEF"/>
<stop offset="1" stop-color="#3089F7"/>
</linearGradient>
<linearGradient id="paint19_linear_1076_2887" x1="3.49767" y1="14.6771" x2="244.243" y2="41.0746" gradientUnits="userSpaceOnUse">
<stop stop-color="#5D1BEF"/>
<stop offset="1" stop-color="#3089F7"/>
</linearGradient>
<linearGradient id="paint20_linear_1076_2887" x1="3.49767" y1="14.6771" x2="244.243" y2="41.0746" gradientUnits="userSpaceOnUse">
<stop stop-color="#5D1BEF"/>
<stop offset="1" stop-color="#3089F7"/>
</linearGradient>
<linearGradient id="paint21_linear_1076_2887" x1="3.49767" y1="14.6771" x2="244.243" y2="41.0746" gradientUnits="userSpaceOnUse">
<stop stop-color="#5D1BEF"/>
<stop offset="1" stop-color="#3089F7"/>
</linearGradient>
</defs>
</svg>
